<svg xmlns="http://www.w3.org/2000/svg" xmlns:xlink="http://www.w3.org/1999/xlink" width="500" zoomAndPan="magnify" viewBox="0 0 375 374.999991" height="500" preserveAspectRatio="xMidYMid meet" version="1.0"><defs><g/><clipPath id="id1"><path d="M 141.070312 104.0625 L 198.367188 104.0625 L 198.367188 216.503906 L 141.070312 216.503906 Z M 141.070312 104.0625 " clip-rule="nonzero"/></clipPath><clipPath id="id2"><path d="M 158.496094 104.160156 C 168.273438 116.046875 170.800781 136.609375 166.710938 158.847656 C 171.492188 154.851562 176.863281 151.273438 182.707031 147.855469 C 218.53125 126.910156 184.941406 103.246094 158.496094 104.160156 Z M 141.078125 216.5 C 161.613281 213.378906 178.683594 197.941406 188.980469 179.464844 C 188.5 179.570312 188.027344 179.714844 187.546875 179.785156 C 150.976562 184.847656 156.152344 199.550781 141.078125 216.5 " clip-rule="nonzero"/></clipPath><clipPath id="id3"><path d="M 158.496094 104.160156 C 168.273438 116.046875 170.800781 136.609375 166.710938 158.847656 C 171.492188 154.851562 176.863281 151.273438 182.707031 147.855469 C 218.53125 126.910156 184.941406 103.246094 158.496094 104.160156 Z M 141.078125 216.5 C 161.613281 213.378906 178.683594 197.941406 188.980469 179.464844 C 188.5 179.570312 188.027344 179.714844 187.546875 179.785156 C 150.976562 184.847656 156.152344 199.550781 141.078125 216.5 " clip-rule="nonzero"/></clipPath><clipPath id="id4"><path d="M 226.445312 103.796875 L 141.457031 97.878906 L 133.164062 215.949219 L 218.15625 221.867188 Z M 226.445312 103.796875 " clip-rule="nonzero"/></clipPath><linearGradient x1="0.255361" gradientTransform="matrix(-11.803512, 168.061836, -71.598585, -4.98477, 223.436489, 62.683258)" y1="0" x2="0.944744" gradientUnits="userSpaceOnUse" y2="0" id="id5"><stop stop-opacity="1" stop-color="rgb(85.499573%, 7.798767%, 28.999329%)" offset="0"/><stop stop-opacity="1" stop-color="rgb(85.40802%, 7.798767%, 28.999329%)" offset="0.0078125"/><stop stop-opacity="1" stop-color="rgb(85.20813%, 7.798767%, 28.915405%)" offset="0.015625"/><stop stop-opacity="1" stop-color="rgb(85.025024%, 7.873535%, 28.715515%)" offset="0.0234375"/><stop stop-opacity="1" stop-color="rgb(84.823608%, 8.073425%, 28.599548%)" offset="0.03125"/><stop stop-opacity="1" stop-color="rgb(84.640503%, 8.198547%, 28.599548%)" offset="0.0390625"/><stop stop-opacity="1" stop-color="rgb(84.440613%, 8.198547%, 28.599548%)" offset="0.046875"/><stop stop-opacity="1" stop-color="rgb(84.269714%, 8.198547%, 28.599548%)" offset="0.0625"/><stop stop-opacity="1" stop-color="rgb(84.048462%, 8.198547%, 28.599548%)" offset="0.078125"/><stop stop-opacity="1" stop-color="rgb(83.677673%, 8.198547%, 28.599548%)" offset="0.09375"/><stop stop-opacity="1" stop-color="rgb(83.482361%, 8.198547%, 28.599548%)" offset="0.109375"/><stop stop-opacity="1" stop-color="rgb(83.274841%, 8.198547%, 28.599548%)" offset="0.125"/><stop stop-opacity="1" stop-color="rgb(82.891846%, 8.198547%, 28.57666%)" offset="0.140625"/><stop stop-opacity="1" stop-color="rgb(82.548523%, 8.198547%, 28.37677%)" offset="0.15625"/><stop stop-opacity="1" stop-color="rgb(82.398987%, 8.198547%, 28.199768%)" offset="0.171875"/><stop stop-opacity="1" stop-color="rgb(82.302856%, 8.198547%, 28.199768%)" offset="0.179687"/><stop stop-opacity="1" stop-color="rgb(82.104492%, 8.198547%, 28.199768%)" offset="0.1875"/><stop stop-opacity="1" stop-color="rgb(81.809998%, 8.387756%, 28.199768%)" offset="0.203125"/><stop stop-opacity="1" stop-color="rgb(81.608582%, 8.589172%, 28.005981%)" offset="0.21875"/><stop stop-opacity="1" stop-color="rgb(81.419373%, 8.599854%, 27.806091%)" offset="0.226562"/><stop stop-opacity="1" stop-color="rgb(81.048584%, 8.599854%, 27.799988%)" offset="0.234375"/><stop stop-opacity="1" stop-color="rgb(80.828857%, 8.599854%, 27.799988%)" offset="0.25"/><stop stop-opacity="1" stop-color="rgb(80.619812%, 8.599854%, 27.799988%)" offset="0.265625"/><stop stop-opacity="1" stop-color="rgb(80.245972%, 8.599854%, 27.670288%)" offset="0.28125"/><stop stop-opacity="1" stop-color="rgb(79.898071%, 8.599854%, 27.519226%)" offset="0.296875"/><stop stop-opacity="1" stop-color="rgb(79.670715%, 8.599854%, 27.49939%)" offset="0.3125"/><stop stop-opacity="1" stop-color="rgb(79.438782%, 8.599854%, 27.339172%)" offset="0.328125"/><stop stop-opacity="1" stop-color="rgb(79.179382%, 8.599854%, 27.139282%)" offset="0.335937"/><stop stop-opacity="1" stop-color="rgb(78.977966%, 8.599854%, 27.099609%)" offset="0.34375"/><stop stop-opacity="1" stop-color="rgb(78.681946%, 8.599854%, 27.099609%)" offset="0.359375"/><stop stop-opacity="1" stop-color="rgb(78.349304%, 8.599854%, 27.005005%)" offset="0.375"/><stop stop-opacity="1" stop-color="rgb(78.059387%, 8.599854%, 26.805115%)" offset="0.382812"/><stop stop-opacity="1" stop-color="rgb(77.806091%, 8.599854%, 26.699829%)" offset="0.390625"/><stop stop-opacity="1" stop-color="rgb(77.650452%, 8.74176%, 26.699829%)" offset="0.40625"/><stop stop-opacity="1" stop-color="rgb(77.449036%, 8.94165%, 26.699829%)" offset="0.421875"/><stop stop-opacity="1" stop-color="rgb(77.165222%, 8.999634%, 26.565552%)" offset="0.4375"/><stop stop-opacity="1" stop-color="rgb(76.931763%, 8.999634%, 26.364136%)" offset="0.445312"/><stop stop-opacity="1" stop-color="rgb(76.73645%, 8.999634%, 26.298523%)" offset="0.453125"/><stop stop-opacity="1" stop-color="rgb(76.570129%, 8.999634%, 26.298523%)" offset="0.46875"/><stop stop-opacity="1" stop-color="rgb(76.44043%, 8.999634%, 26.298523%)" offset="0.476562"/><stop stop-opacity="1" stop-color="rgb(76.24054%, 8.999634%, 26.298523%)" offset="0.484375"/><stop stop-opacity="1" stop-color="rgb(75.982666%, 8.999634%, 26.182556%)" offset="0.5"/><stop stop-opacity="1" stop-color="rgb(75.769043%, 8.999634%, 25.982666%)" offset="0.507812"/><stop stop-opacity="1" stop-color="rgb(75.570679%, 8.999634%, 25.898743%)" offset="0.515625"/><stop stop-opacity="1" stop-color="rgb(75.367737%, 8.999634%, 25.898743%)" offset="0.523437"/><stop stop-opacity="1" stop-color="rgb(75.170898%, 8.999634%, 25.898743%)" offset="0.53125"/><stop stop-opacity="1" stop-color="rgb(74.882507%, 8.999634%, 25.898743%)" offset="0.546875"/><stop stop-opacity="1" stop-color="rgb(74.595642%, 8.999634%, 25.898743%)" offset="0.5625"/><stop stop-opacity="1" stop-color="rgb(74.40033%, 8.999634%, 25.799561%)" offset="0.578125"/><stop stop-opacity="1" stop-color="rgb(74.205017%, 8.999634%, 25.604248%)" offset="0.585938"/><stop stop-opacity="1" stop-color="rgb(74.006653%, 8.999634%, 25.50354%)" offset="0.59375"/><stop stop-opacity="1" stop-color="rgb(73.803711%, 8.999634%, 25.498962%)" offset="0.601562"/><stop stop-opacity="1" stop-color="rgb(73.605347%, 8.999634%, 25.498962%)" offset="0.609375"/><stop stop-opacity="1" stop-color="rgb(73.403931%, 8.999634%, 25.498962%)" offset="0.625"/><stop stop-opacity="1" stop-color="rgb(73.216248%, 8.999634%, 25.415039%)" offset="0.640625"/><stop stop-opacity="1" stop-color="rgb(73.031616%, 8.999634%, 25.230408%)" offset="0.648438"/><stop stop-opacity="1" stop-color="rgb(72.750854%, 8.999634%, 25.114441%)" offset="0.65625"/><stop stop-opacity="1" stop-color="rgb(72.480774%, 8.999634%, 25.099182%)" offset="0.671875"/><stop stop-opacity="1" stop-color="rgb(72.224426%, 8.999634%, 25.099182%)" offset="0.6875"/><stop stop-opacity="1" stop-color="rgb(71.929932%, 8.999634%, 25.099182%)" offset="0.703125"/><stop stop-opacity="1" stop-color="rgb(71.798706%, 8.999634%, 24.969482%)" offset="0.710937"/><stop stop-opacity="1" stop-color="rgb(71.734619%, 8.999634%, 24.769592%)" offset="0.71875"/><stop stop-opacity="1" stop-color="rgb(71.568298%, 8.999634%, 24.699402%)" offset="0.726562"/><stop stop-opacity="1" stop-color="rgb(71.368408%, 8.999634%, 24.699402%)" offset="0.734375"/><stop stop-opacity="1" stop-color="rgb(71.078491%, 8.999634%, 24.699402%)" offset="0.75"/><stop stop-opacity="1" stop-color="rgb(70.742798%, 8.999634%, 24.699402%)" offset="0.765625"/><stop stop-opacity="1" stop-color="rgb(70.547485%, 8.999634%, 24.647522%)" offset="0.78125"/><stop stop-opacity="1" stop-color="rgb(70.303345%, 8.999634%, 24.447632%)" offset="0.796875"/><stop stop-opacity="1" stop-color="rgb(69.955444%, 8.999634%, 24.299622%)" offset="0.8125"/><stop stop-opacity="1" stop-color="rgb(69.71283%, 8.999634%, 24.299622%)" offset="0.820312"/><stop stop-opacity="1" stop-color="rgb(69.512939%, 8.999634%, 24.299622%)" offset="0.828125"/><stop stop-opacity="1" stop-color="rgb(69.329834%, 8.999634%, 24.299622%)" offset="0.835938"/><stop stop-opacity="1" stop-color="rgb(69.129944%, 8.999634%, 24.238586%)" offset="0.84375"/><stop stop-opacity="1" stop-color="rgb(68.939209%, 8.999634%, 24.038696%)" offset="0.851562"/><stop stop-opacity="1" stop-color="rgb(68.739319%, 8.999634%, 23.899841%)" offset="0.859375"/><stop stop-opacity="1" stop-color="rgb(68.572998%, 8.999634%, 23.899841%)" offset="0.875"/><stop stop-opacity="1" stop-color="rgb(68.450928%, 8.999634%, 23.899841%)" offset="0.882813"/><stop stop-opacity="1" stop-color="rgb(68.237305%, 8.999634%, 23.899841%)" offset="0.890625"/><stop stop-opacity="1" stop-color="rgb(67.959595%, 8.999634%, 23.847961%)" offset="0.898438"/><stop stop-opacity="1" stop-color="rgb(67.799377%, 8.999634%, 23.648071%)" offset="0.90625"/><stop stop-opacity="1" stop-color="rgb(67.648315%, 8.999634%, 23.498535%)" offset="0.921875"/><stop stop-opacity="1" stop-color="rgb(67.481995%, 8.999634%, 23.498535%)" offset="0.929688"/><stop stop-opacity="1" stop-color="rgb(67.282104%, 8.999634%, 23.493958%)" offset="0.9375"/><stop stop-opacity="1" stop-color="rgb(67.089844%, 8.999634%, 23.294067%)" offset="0.953125"/><stop stop-opacity="1" stop-color="rgb(66.889954%, 8.999634%, 23.098755%)" offset="0.96875"/><stop stop-opacity="1" stop-color="rgb(66.506958%, 8.999634%, 23.098755%)" offset="0.976563"/><stop stop-opacity="1" stop-color="rgb(66.307068%, 8.999634%, 23.098755%)" offset="0.984375"/><stop stop-opacity="1" stop-color="rgb(66.299438%, 8.999634%, 23.098755%)" offset="1"/></linearGradient><clipPath id="id6"><path d="M 148 111.316406 L 235.578125 111.316406 L 235.578125 191.6875 L 148 191.6875 Z M 148 111.316406 " clip-rule="nonzero"/></clipPath><clipPath id="id7"><path d="M 148.023438 191.523438 C 163.09375 143.078125 220.1875 145.761719 233.464844 111.390625 C 248.886719 190.375 175.753906 169.390625 148.023438 191.523438 " clip-rule="nonzero"/></clipPath><clipPath id="id8"><path d="M 148.023438 191.523438 C 163.09375 143.078125 220.1875 145.761719 233.464844 111.390625 C 248.886719 190.375 175.753906 169.390625 148.023438 191.523438 " clip-rule="nonzero"/></clipPath><clipPath id="id9"><path d="M 245.210938 92.578125 L 132.945312 114.304688 L 151.695312 210.332031 L 263.960938 188.605469 Z M 245.210938 92.578125 " clip-rule="nonzero"/></clipPath><linearGradient x1="0.0642861" gradientTransform="matrix(25.962785, 132.983853, -98.179594, 19.000813, 229.070829, 86.831698)" y1="0" x2="0.767711" gradientUnits="userSpaceOnUse" y2="0" id="id10"><stop stop-opacity="1" stop-color="rgb(12.199402%, 16.899109%, 32.539368%)" offset="0"/><stop stop-opacity="1" stop-color="rgb(12.348938%, 16.899109%, 32.719421%)" offset="0.0078125"/><stop stop-opacity="1" stop-color="rgb(12.5%, 16.899109%, 33.09021%)" offset="0.015625"/><stop stop-opacity="1" stop-color="rgb(12.5%, 17.098999%, 33.296204%)" offset="0.0195312"/><stop stop-opacity="1" stop-color="rgb(12.5%, 17.298889%, 33.311462%)" offset="0.0234375"/><stop stop-opacity="1" stop-color="rgb(12.5%, 17.298889%, 33.500671%)" offset="0.03125"/><stop stop-opacity="1" stop-color="rgb(12.5%, 17.437744%, 33.880615%)" offset="0.0390625"/><stop stop-opacity="1" stop-color="rgb(12.5%, 17.588806%, 34.085083%)" offset="0.046875"/><stop stop-opacity="1" stop-color="rgb(12.5%, 17.599487%, 34.265137%)" offset="0.0546875"/><stop stop-opacity="1" stop-color="rgb(12.5%, 17.599487%, 34.622192%)" offset="0.0625"/><stop stop-opacity="1" stop-color="rgb(12.667847%, 17.599487%, 34.855652%)" offset="0.0703125"/><stop stop-opacity="1" stop-color="rgb(12.867737%, 17.76123%, 35.061646%)" offset="0.078125"/><stop stop-opacity="1" stop-color="rgb(12.89978%, 17.961121%, 35.414124%)" offset="0.0859375"/><stop stop-opacity="1" stop-color="rgb(12.89978%, 18.1427%, 35.795593%)" offset="0.09375"/><stop stop-opacity="1" stop-color="rgb(12.89978%, 18.34259%, 36.109924%)" offset="0.101562"/><stop stop-opacity="1" stop-color="rgb(12.89978%, 18.399048%, 36.463928%)" offset="0.105469"/><stop stop-opacity="1" stop-color="rgb(12.89978%, 18.399048%, 36.694336%)" offset="0.109375"/><stop stop-opacity="1" stop-color="rgb(13.09967%, 18.399048%, 36.87439%)" offset="0.113281"/><stop stop-opacity="1" stop-color="rgb(13.299561%, 18.399048%, 37.055969%)" offset="0.117188"/><stop stop-opacity="1" stop-color="rgb(13.299561%, 18.399048%, 37.176514%)" offset="0.125"/><stop stop-opacity="1" stop-color="rgb(13.299561%, 18.518066%, 37.388611%)" offset="0.132813"/><stop stop-opacity="1" stop-color="rgb(13.299561%, 18.717957%, 37.538147%)" offset="0.140625"/><stop stop-opacity="1" stop-color="rgb(13.299561%, 18.798828%, 37.713623%)" offset="0.148438"/><stop stop-opacity="1" stop-color="rgb(13.299561%, 18.798828%, 38.02948%)" offset="0.152344"/><stop stop-opacity="1" stop-color="rgb(13.299561%, 18.798828%, 38.230896%)" offset="0.15625"/><stop stop-opacity="1" stop-color="rgb(13.299561%, 18.904114%, 38.314819%)" offset="0.164062"/><stop stop-opacity="1" stop-color="rgb(13.395691%, 19.104004%, 38.494873%)" offset="0.171875"/><stop stop-opacity="1" stop-color="rgb(13.395691%, 19.274902%, 38.771057%)" offset="0.1875"/><stop stop-opacity="1" stop-color="rgb(13.299561%, 19.476318%, 39.152527%)" offset="0.191406"/><stop stop-opacity="1" stop-color="rgb(13.299561%, 19.599915%, 39.352417%)" offset="0.195313"/><stop stop-opacity="1" stop-color="rgb(13.299561%, 19.682312%, 39.558411%)" offset="0.199219"/><stop stop-opacity="1" stop-color="rgb(13.299561%, 19.764709%, 39.764404%)" offset="0.203125"/><stop stop-opacity="1" stop-color="rgb(13.362122%, 19.944763%, 39.944458%)" offset="0.21875"/><stop stop-opacity="1" stop-color="rgb(13.562012%, 20.262146%, 40.310669%)" offset="0.234375"/><stop stop-opacity="1" stop-color="rgb(13.699341%, 20.399475%, 40.647888%)" offset="0.242187"/><stop stop-opacity="1" stop-color="rgb(13.699341%, 20.448303%, 40.847778%)" offset="0.25"/><stop stop-opacity="1" stop-color="rgb(13.699341%, 20.677185%, 41.078186%)" offset="0.265625"/><stop stop-opacity="1" stop-color="rgb(13.699341%, 21.028137%, 41.427612%)" offset="0.273438"/><stop stop-opacity="1" stop-color="rgb(13.699341%, 21.199036%, 41.633606%)" offset="0.28125"/><stop stop-opacity="1" stop-color="rgb(13.723755%, 21.199036%, 41.859436%)" offset="0.289062"/><stop stop-opacity="1" stop-color="rgb(13.923645%, 21.214294%, 42.236328%)" offset="0.296875"/><stop stop-opacity="1" stop-color="rgb(14.099121%, 21.414185%, 42.559814%)" offset="0.3125"/><stop stop-opacity="1" stop-color="rgb(14.099121%, 21.784973%, 42.884827%)" offset="0.320312"/><stop stop-opacity="1" stop-color="rgb(14.299011%, 21.984863%, 43.087769%)" offset="0.324219"/><stop stop-opacity="1" stop-color="rgb(14.498901%, 21.998596%, 43.103027%)" offset="0.328125"/><stop stop-opacity="1" stop-color="rgb(14.498901%, 21.998596%, 43.293762%)" offset="0.335938"/><stop stop-opacity="1" stop-color="rgb(14.498901%, 21.998596%, 43.492126%)" offset="0.34375"/><stop stop-opacity="1" stop-color="rgb(14.671326%, 21.998596%, 43.67218%)" offset="0.351562"/><stop stop-opacity="1" stop-color="rgb(14.871216%, 22.161865%, 44.035339%)" offset="0.359375"/><stop stop-opacity="1" stop-color="rgb(14.898682%, 22.361755%, 44.438171%)" offset="0.363281"/><stop stop-opacity="1" stop-color="rgb(14.898682%, 22.399902%, 44.650269%)" offset="0.367187"/><stop stop-opacity="1" stop-color="rgb(15.068054%, 22.525024%, 44.842529%)" offset="0.375"/><stop stop-opacity="1" stop-color="rgb(15.267944%, 22.674561%, 45.227051%)" offset="0.382812"/><stop stop-opacity="1" stop-color="rgb(15.299988%, 22.698975%, 45.457458%)" offset="0.390625"/><stop stop-opacity="1" stop-color="rgb(15.447998%, 22.846985%, 45.646667%)" offset="0.40625"/><stop stop-opacity="1" stop-color="rgb(15.647888%, 23.046875%, 45.993042%)" offset="0.410156"/><stop stop-opacity="1" stop-color="rgb(15.699768%, 23.098755%, 46.18988%)" offset="0.414062"/><stop stop-opacity="1" stop-color="rgb(15.699768%, 23.234558%, 46.244812%)" offset="0.421875"/><stop stop-opacity="1" stop-color="rgb(15.82489%, 23.434448%, 46.424866%)" offset="0.429687"/><stop stop-opacity="1" stop-color="rgb(16.140747%, 23.614502%, 46.740723%)" offset="0.4375"/><stop stop-opacity="1" stop-color="rgb(16.415405%, 23.815918%, 47.125244%)" offset="0.453125"/><stop stop-opacity="1" stop-color="rgb(16.601562%, 24.002075%, 47.486877%)" offset="0.46875"/><stop stop-opacity="1" stop-color="rgb(16.801453%, 24.201965%, 47.817993%)" offset="0.476562"/><stop stop-opacity="1" stop-color="rgb(16.899109%, 24.299622%, 48.091125%)" offset="0.484375"/><stop stop-opacity="1" stop-color="rgb(16.981506%, 24.382019%, 48.28186%)" offset="0.492187"/><stop stop-opacity="1" stop-color="rgb(17.181396%, 24.581909%, 48.48175%)" offset="0.5"/><stop stop-opacity="1" stop-color="rgb(17.298889%, 24.699402%, 48.677063%)" offset="0.507812"/><stop stop-opacity="1" stop-color="rgb(17.298889%, 24.768066%, 48.945618%)" offset="0.515625"/><stop stop-opacity="1" stop-color="rgb(17.448425%, 24.967957%, 49.324036%)" offset="0.53125"/><stop stop-opacity="1" stop-color="rgb(17.663574%, 25.163269%, 49.655151%)" offset="0.539063"/><stop stop-opacity="1" stop-color="rgb(17.863464%, 25.418091%, 49.853516%)" offset="0.546875"/><stop stop-opacity="1" stop-color="rgb(17.999268%, 25.753784%, 50.099182%)" offset="0.554688"/><stop stop-opacity="1" stop-color="rgb(18.034363%, 25.898743%, 50.479126%)" offset="0.5625"/><stop stop-opacity="1" stop-color="rgb(18.234253%, 25.898743%, 50.834656%)" offset="0.578125"/><stop stop-opacity="1" stop-color="rgb(18.429565%, 25.898743%, 51.029968%)" offset="0.585938"/><stop stop-opacity="1" stop-color="rgb(18.629456%, 25.920105%, 51.229858%)" offset="0.59375"/><stop stop-opacity="1" stop-color="rgb(18.798828%, 26.144409%, 51.423645%)" offset="0.597656"/><stop stop-opacity="1" stop-color="rgb(18.798828%, 26.347351%, 51.448059%)" offset="0.601562"/><stop stop-opacity="1" stop-color="rgb(18.998718%, 26.522827%, 51.826477%)" offset="0.605469"/><stop stop-opacity="1" stop-color="rgb(19.198608%, 26.699829%, 52.206421%)" offset="0.609375"/><stop stop-opacity="1" stop-color="rgb(19.198608%, 26.699829%, 52.352905%)" offset="0.617188"/><stop stop-opacity="1" stop-color="rgb(19.198608%, 26.699829%, 52.69928%)" offset="0.621094"/><stop stop-opacity="1" stop-color="rgb(19.198608%, 26.699829%, 52.89917%)" offset="0.625"/><stop stop-opacity="1" stop-color="rgb(19.386292%, 26.887512%, 53.086853%)" offset="0.640625"/><stop stop-opacity="1" stop-color="rgb(19.587708%, 27.256775%, 53.456116%)" offset="0.65625"/><stop stop-opacity="1" stop-color="rgb(19.683838%, 27.467346%, 53.753662%)" offset="0.664062"/><stop stop-opacity="1" stop-color="rgb(19.869995%, 27.49939%, 53.970337%)" offset="0.671875"/><stop stop-opacity="1" stop-color="rgb(19.985962%, 27.622986%, 54.251099%)" offset="0.679688"/><stop stop-opacity="1" stop-color="rgb(20.153809%, 27.772522%, 54.464722%)" offset="0.6875"/><stop stop-opacity="1" stop-color="rgb(20.353699%, 27.799988%, 54.644775%)" offset="0.695312"/><stop stop-opacity="1" stop-color="rgb(20.399475%, 27.935791%, 54.980469%)" offset="0.703125"/><stop stop-opacity="1" stop-color="rgb(20.542908%, 28.135681%, 55.235291%)" offset="0.710937"/><stop stop-opacity="1" stop-color="rgb(20.742798%, 28.199768%, 55.439758%)" offset="0.71875"/><stop stop-opacity="1" stop-color="rgb(20.930481%, 28.330994%, 55.639648%)" offset="0.726562"/><stop stop-opacity="1" stop-color="rgb(21.130371%, 28.530884%, 55.821228%)" offset="0.734375"/><stop stop-opacity="1" stop-color="rgb(21.199036%, 28.710938%, 56.132507%)" offset="0.742188"/><stop stop-opacity="1" stop-color="rgb(21.199036%, 28.910828%, 56.410217%)" offset="0.75"/><stop stop-opacity="1" stop-color="rgb(21.353149%, 28.999329%, 56.652832%)" offset="0.765625"/><stop stop-opacity="1" stop-color="rgb(21.55304%, 29.142761%, 56.997681%)" offset="0.78125"/><stop stop-opacity="1" stop-color="rgb(21.755981%, 29.342651%, 57.362366%)" offset="0.789063"/><stop stop-opacity="1" stop-color="rgb(21.955872%, 29.399109%, 57.566833%)" offset="0.796875"/><stop stop-opacity="1" stop-color="rgb(21.998596%, 29.399109%, 57.6828%)" offset="0.804688"/><stop stop-opacity="1" stop-color="rgb(22.073364%, 29.473877%, 57.88269%)" offset="0.8125"/><stop stop-opacity="1" stop-color="rgb(22.273254%, 29.673767%, 58.06427%)" offset="0.820312"/><stop stop-opacity="1" stop-color="rgb(22.441101%, 29.853821%, 58.26416%)" offset="0.828125"/><stop stop-opacity="1" stop-color="rgb(22.590637%, 30.053711%, 58.451843%)" offset="0.835938"/><stop stop-opacity="1" stop-color="rgb(22.698975%, 30.198669%, 58.651733%)" offset="0.84375"/><stop stop-opacity="1" stop-color="rgb(22.698975%, 30.198669%, 58.850098%)" offset="0.851562"/><stop stop-opacity="1" stop-color="rgb(22.740173%, 30.198669%, 59.049988%)" offset="0.859375"/><stop stop-opacity="1" stop-color="rgb(22.940063%, 30.230713%, 59.231567%)" offset="0.867188"/><stop stop-opacity="1" stop-color="rgb(23.123169%, 30.430603%, 59.455872%)" offset="0.875"/><stop stop-opacity="1" stop-color="rgb(23.323059%, 30.636597%, 59.823608%)" offset="0.882812"/><stop stop-opacity="1" stop-color="rgb(23.498535%, 30.836487%, 60.02655%)" offset="0.890625"/><stop stop-opacity="1" stop-color="rgb(23.498535%, 30.999756%, 60.22644%)" offset="0.90625"/><stop stop-opacity="1" stop-color="rgb(23.498535%, 30.999756%, 60.398865%)" offset="0.914062"/><stop stop-opacity="1" stop-color="rgb(23.698425%, 31.013489%, 60.598755%)" offset="0.917969"/><stop stop-opacity="1" stop-color="rgb(23.899841%, 31.027222%, 60.798645%)" offset="0.921875"/><stop stop-opacity="1" stop-color="rgb(24.093628%, 31.213379%, 60.992432%)" offset="0.9375"/><stop stop-opacity="1" stop-color="rgb(24.293518%, 31.584167%, 61.193848%)" offset="0.945312"/><stop stop-opacity="1" stop-color="rgb(24.299622%, 31.784058%, 61.373901%)" offset="0.953125"/><stop stop-opacity="1" stop-color="rgb(24.299622%, 31.799316%, 61.573792%)" offset="0.960937"/><stop stop-opacity="1" stop-color="rgb(24.476624%, 31.799316%, 61.776733%)" offset="0.96875"/><stop stop-opacity="1" stop-color="rgb(24.676514%, 31.970215%, 62.147522%)" offset="0.976562"/><stop stop-opacity="1" stop-color="rgb(24.699402%, 32.170105%, 62.3703%)" offset="0.984375"/><stop stop-opacity="1" stop-color="rgb(24.841309%, 32.304382%, 62.548828%)" offset="1"/></linearGradient><clipPath id="id11"><path d="M 127.683594 83.753906 L 233 83.753906 L 233 129.15625 L 127.683594 129.15625 Z M 127.683594 83.753906 " clip-rule="nonzero"/></clipPath><clipPath id="id12"><path d="M 127.683594 108.777344 C 165.066406 99.421875 223.304688 95.433594 216.898438 129.148438 C 262.496094 92.789062 203.632812 59.070312 127.683594 108.777344 " clip-rule="nonzero"/></clipPath><clipPath id="id13"><path d="M 127.683594 108.777344 C 165.066406 99.421875 223.304688 95.433594 216.898438 129.148438 C 262.496094 92.789062 203.632812 59.070312 127.683594 108.777344 " clip-rule="nonzero"/></clipPath><clipPath id="id14"><path d="M 98.507812 113.703125 L 232.785156 184.785156 L 291.675781 74.515625 L 157.398438 3.429688 Z M 98.507812 113.703125 " clip-rule="nonzero"/></clipPath><linearGradient x1="0.101423" gradientTransform="matrix(65.266874, -122.213109, 99.138044, 52.482314, 112.236322, 136.869947)" y1="0" x2="0.746689" gradientUnits="userSpaceOnUse" y2="0" id="id15"><stop stop-opacity="1" stop-color="rgb(31.399536%, 52.89917%, 73.699951%)" offset="0"/><stop stop-opacity="1" stop-color="rgb(31.399536%, 52.89917%, 73.608398%)" offset="0.03125"/><stop stop-opacity="1" stop-color="rgb(31.222534%, 52.722168%, 73.408508%)" offset="0.0625"/><stop stop-opacity="1" stop-color="rgb(30.963135%, 52.522278%, 73.239136%)" offset="0.09375"/><stop stop-opacity="1" stop-color="rgb(30.740356%, 52.487183%, 73.039246%)" offset="0.109375"/><stop stop-opacity="1" stop-color="rgb(30.599976%, 52.337646%, 72.80426%)" offset="0.125"/><stop stop-opacity="1" stop-color="rgb(30.599976%, 52.105713%, 72.60437%)" offset="0.140625"/><stop stop-opacity="1" stop-color="rgb(30.560303%, 51.905823%, 72.470093%)" offset="0.15625"/><stop stop-opacity="1" stop-color="rgb(30.358887%, 51.679993%, 72.319031%)" offset="0.1875"/><stop stop-opacity="1" stop-color="rgb(30.137634%, 51.480103%, 72.137451%)" offset="0.203125"/><stop stop-opacity="1" stop-color="rgb(29.937744%, 51.38855%, 71.937561%)" offset="0.21875"/><stop stop-opacity="1" stop-color="rgb(29.710388%, 51.18866%, 71.710205%)" offset="0.25"/><stop stop-opacity="1" stop-color="rgb(29.510498%, 50.819397%, 71.510315%)" offset="0.28125"/><stop stop-opacity="1" stop-color="rgb(29.278564%, 50.619507%, 71.278381%)" offset="0.296875"/><stop stop-opacity="1" stop-color="rgb(29.078674%, 50.59967%, 71.078491%)" offset="0.3125"/><stop stop-opacity="1" stop-color="rgb(28.999329%, 50.531006%, 70.932007%)" offset="0.320312"/><stop stop-opacity="1" stop-color="rgb(28.999329%, 50.331116%, 70.732117%)" offset="0.328125"/><stop stop-opacity="1" stop-color="rgb(28.999329%, 50.19989%, 70.599365%)" offset="0.34375"/><stop stop-opacity="1" stop-color="rgb(28.907776%, 50.19989%, 70.507812%)" offset="0.359375"/><stop stop-opacity="1" stop-color="rgb(28.707886%, 50.166321%, 70.307922%)" offset="0.375"/><stop stop-opacity="1" stop-color="rgb(28.599548%, 49.966431%, 70.077515%)" offset="0.40625"/><stop stop-opacity="1" stop-color="rgb(28.536987%, 49.798584%, 69.877625%)" offset="0.421875"/><stop stop-opacity="1" stop-color="rgb(28.337097%, 49.797058%, 69.799805%)" offset="0.4375"/><stop stop-opacity="1" stop-color="rgb(28.199768%, 49.647522%, 69.799805%)" offset="0.453125"/><stop stop-opacity="1" stop-color="rgb(28.106689%, 49.356079%, 69.706726%)" offset="0.46875"/><stop stop-opacity="1" stop-color="rgb(27.906799%, 49.105835%, 69.50531%)" offset="0.484375"/><stop stop-opacity="1" stop-color="rgb(27.799988%, 48.999023%, 69.233704%)" offset="0.5"/><stop stop-opacity="1" stop-color="rgb(27.799988%, 48.890686%, 69.033813%)" offset="0.507812"/><stop stop-opacity="1" stop-color="rgb(27.799988%, 48.690796%, 68.998718%)" offset="0.515625"/><stop stop-opacity="1" stop-color="rgb(27.799988%, 48.599243%, 68.934631%)" offset="0.53125"/><stop stop-opacity="1" stop-color="rgb(27.685547%, 48.446655%, 68.734741%)" offset="0.5625"/><stop stop-opacity="1" stop-color="rgb(27.534485%, 48.246765%, 68.504333%)" offset="0.578125"/><stop stop-opacity="1" stop-color="rgb(27.49939%, 48.199463%, 68.304443%)" offset="0.59375"/><stop stop-opacity="1" stop-color="rgb(27.482605%, 48.182678%, 68.199158%)" offset="0.601562"/><stop stop-opacity="1" stop-color="rgb(27.282715%, 47.982788%, 68.103027%)" offset="0.609375"/><stop stop-opacity="1" stop-color="rgb(27.099609%, 47.799683%, 67.883301%)" offset="0.617187"/><stop stop-opacity="1" stop-color="rgb(27.099609%, 47.799683%, 67.630005%)" offset="0.625"/><stop stop-opacity="1" stop-color="rgb(27.099609%, 47.799683%, 67.315674%)" offset="0.632812"/><stop stop-opacity="1" stop-color="rgb(27.099609%, 47.799683%, 67.115784%)" offset="0.640625"/><stop stop-opacity="1" stop-color="rgb(27.093506%, 47.799683%, 67.098999%)" offset="0.65625"/><stop stop-opacity="1" stop-color="rgb(26.893616%, 47.72644%, 67.001343%)" offset="0.6875"/><stop stop-opacity="1" stop-color="rgb(26.699829%, 47.576904%, 66.801453%)" offset="0.71875"/><stop stop-opacity="1" stop-color="rgb(26.594543%, 47.393799%, 66.593933%)" offset="0.726562"/><stop stop-opacity="1" stop-color="rgb(26.394653%, 47.193909%, 66.394043%)" offset="0.734375"/><stop stop-opacity="1" stop-color="rgb(26.298523%, 47.03064%, 66.299438%)" offset="0.75"/><stop stop-opacity="1" stop-color="rgb(26.152039%, 46.83075%, 66.152954%)" offset="0.78125"/><stop stop-opacity="1" stop-color="rgb(25.952148%, 46.606445%, 65.953064%)" offset="0.796875"/><stop stop-opacity="1" stop-color="rgb(25.860596%, 46.406555%, 65.861511%)" offset="0.8125"/><stop stop-opacity="1" stop-color="rgb(25.660706%, 46.173096%, 65.661621%)" offset="0.84375"/><stop stop-opacity="1" stop-color="rgb(25.428772%, 45.973206%, 65.429688%)" offset="0.859375"/><stop stop-opacity="1" stop-color="rgb(25.228882%, 45.881653%, 65.228271%)" offset="0.875"/><stop stop-opacity="1" stop-color="rgb(25.099182%, 45.680237%, 65.000916%)" offset="0.890625"/><stop stop-opacity="1" stop-color="rgb(25.099182%, 45.498657%, 64.801025%)" offset="0.90625"/><stop stop-opacity="1" stop-color="rgb(25.018311%, 45.498657%, 64.61792%)" offset="0.921875"/><stop stop-opacity="1" stop-color="rgb(24.81842%, 45.498657%, 64.41803%)" offset="0.9375"/><stop stop-opacity="1" stop-color="rgb(24.699402%, 45.379639%, 64.179993%)" offset="0.953125"/><stop stop-opacity="1" stop-color="rgb(24.699402%, 45.179749%, 63.980103%)" offset="0.96875"/><stop stop-opacity="1" stop-color="rgb(24.54834%, 45.098877%, 63.748169%)" offset="1"/></linearGradient></defs><g clip-path="url(#id1)"><g clip-path="url(#id2)"><g clip-path="url(#id3)"><g clip-path="url(#id4)"><path fill="url(#id5)" d="M 206.222656 104.609375 L 141.359375 100.09375 L 133.222656 215.953125 L 198.085938 220.46875 Z M 206.222656 104.609375 " fill-rule="nonzero"/></g></g></g></g><g clip-path="url(#id6)"><g clip-path="url(#id7)"><g clip-path="url(#id8)"><g clip-path="url(#id9)"><path fill="url(#id10)" d="M 232.390625 95.0625 L 132.945312 114.308594 L 151.210938 207.851562 L 250.652344 188.605469 Z M 232.390625 95.0625 " fill-rule="nonzero"/></g></g></g></g><g clip-path="url(#id11)"><g clip-path="url(#id12)"><g clip-path="url(#id13)"><g clip-path="url(#id14)"><path fill="url(#id15)" d="M 108.785156 119.144531 L 209.800781 172.621094 L 251.917969 93.761719 L 150.898438 40.285156 Z M 108.785156 119.144531 " fill-rule="nonzero"/></g></g></g></g><g fill="#d31046" fill-opacity="1"><g transform="translate(202.712744, 213.356984)"><g><path d="M 0.328125 -6.269531 C 0.5625 -6.238281 0.757812 -6.238281 0.824219 -6.238281 C 0.859375 -6.238281 0.824219 -6.304688 0.757812 -6.433594 C 0.691406 -6.566406 0.726562 -6.699219 0.757812 -6.730469 C 0.824219 -6.796875 0.890625 -6.996094 0.859375 -7.226562 C 0.824219 -7.621094 1.816406 -10.394531 2.574219 -11.980469 C 2.871094 -12.605469 3.300781 -13.53125 3.5625 -14.058594 C 4.421875 -15.9375 7.492188 -20.824219 8.878906 -22.539062 C 9.140625 -22.867188 9.703125 -23.5625 10.066406 -24.058594 C 11.054688 -25.378906 11.847656 -26.070312 11.980469 -25.871094 C 12.046875 -25.707031 12.078125 -25.738281 12.046875 -25.90625 C 12.078125 -26.070312 12.144531 -26.203125 12.277344 -26.203125 C 12.40625 -26.234375 12.574219 -26.003906 12.703125 -25.3125 C 13.101562 -23.429688 13.429688 -22.539062 13.992188 -21.714844 C 14.488281 -20.855469 15.410156 -20.097656 15.808594 -20.128906 C 15.9375 -20.164062 15.972656 -20.097656 15.9375 -20.03125 C 15.90625 -19.996094 16.171875 -19.933594 16.433594 -19.933594 C 16.929688 -19.964844 16.996094 -19.964844 17.027344 -20.527344 C 17.0625 -21.019531 16.996094 -21.1875 16.730469 -21.351562 C 16.171875 -21.78125 15.972656 -22.242188 15.871094 -23.398438 C 15.675781 -24.882812 15.015625 -26.5 14.222656 -27.160156 C 13.300781 -27.949219 11.78125 -28.246094 10.789062 -27.851562 C 10 -27.554688 9.074219 -26.695312 9.207031 -26.464844 C 9.273438 -26.367188 9.238281 -26.269531 9.175781 -26.300781 C 9.007812 -26.398438 7.128906 -24.355469 7.128906 -24.058594 C 7.160156 -23.992188 7.390625 -24.222656 7.722656 -24.550781 C 8.546875 -25.609375 8.414062 -25.246094 7.492188 -24.058594 C 6.898438 -23.296875 6.699219 -23.132812 6.796875 -23.429688 C 6.832031 -23.824219 6.832031 -23.824219 6.632812 -23.5625 C 6.46875 -23.429688 6.402344 -23.164062 6.402344 -22.96875 C 6.367188 -22.738281 6.335938 -22.570312 6.238281 -22.570312 C 6.136719 -22.570312 5.808594 -22.242188 5.511719 -21.878906 C 4.753906 -20.824219 4.753906 -20.625 5.476562 -21.613281 C 5.839844 -22.042969 6.171875 -22.375 6.203125 -22.242188 C 6.203125 -21.976562 8.578125 -25.078125 8.546875 -25.378906 C 8.515625 -25.507812 8.578125 -25.609375 8.679688 -25.609375 C 8.8125 -25.574219 9.175781 -25.90625 9.503906 -26.269531 C 10.230469 -27.027344 10.824219 -27.523438 11.023438 -27.523438 C 11.253906 -27.554688 11.121094 -27.257812 10.855469 -27.125 C 10.660156 -27.058594 10.558594 -26.894531 10.558594 -26.761719 C 10.59375 -26.632812 10.492188 -26.566406 10.429688 -26.597656 C 10.261719 -26.695312 8.644531 -24.949219 8.679688 -24.683594 C 8.679688 -24.617188 8.316406 -24.058594 7.886719 -23.464844 C 6.566406 -21.8125 5.378906 -20.0625 5.082031 -19.535156 C 4.949219 -19.273438 4.753906 -19.074219 4.621094 -19.039062 C 4.488281 -19.039062 4.421875 -19.007812 4.519531 -18.875 C 4.554688 -18.808594 4.453125 -18.511719 4.289062 -18.25 C 4.09375 -17.984375 3.730469 -17.390625 3.496094 -16.929688 C 3.265625 -16.46875 3.070312 -16.269531 3.070312 -16.367188 C 3.070312 -16.53125 3.070312 -16.699219 3.167969 -16.765625 C 3.234375 -16.796875 3.367188 -17.160156 3.433594 -17.589844 C 3.464844 -17.984375 3.664062 -18.445312 3.828125 -18.613281 C 3.960938 -18.777344 4.058594 -18.976562 3.992188 -19.039062 C 3.925781 -19.105469 4.519531 -20.855469 5.3125 -22.933594 C 6.136719 -25.046875 6.796875 -27.027344 6.898438 -27.457031 C 7.027344 -28.148438 7.027344 -28.148438 6.5 -28.578125 C 6.203125 -28.777344 5.742188 -28.972656 5.542969 -28.972656 C 4.652344 -28.972656 4.027344 -28.777344 3.859375 -28.480469 C 3.5625 -28.015625 1.285156 -21.910156 1.121094 -20.953125 C 1.023438 -20.65625 0.859375 -20.128906 0.660156 -19.46875 C 0.496094 -19.105469 0.230469 -18.183594 0.03125 -17.523438 C -0.164062 -16.828125 -0.394531 -16.171875 -0.460938 -16.039062 C -0.660156 -15.542969 -1.648438 -11.847656 -1.683594 -11.351562 C -1.714844 -11.054688 -1.78125 -10.789062 -1.847656 -10.660156 C -1.945312 -10.558594 -1.980469 -10.328125 -1.980469 -10.164062 C -2.011719 -10 -2.046875 -9.769531 -2.113281 -9.601562 C -2.179688 -9.472656 -2.210938 -8.976562 -2.179688 -8.546875 C -2.078125 -7.820312 -2.011719 -7.6875 -1.351562 -7.128906 C -0.925781 -6.765625 -0.5625 -6.601562 -0.394531 -6.664062 C -0.265625 -6.730469 -0.164062 -6.699219 -0.132812 -6.535156 C -0.132812 -6.402344 0.03125 -6.269531 0.328125 -6.269531 Z M -0.0976562 -12.871094 C -0.363281 -11.714844 -0.957031 -10.066406 -0.988281 -10.261719 C -1.054688 -10.558594 -0.757812 -11.746094 -0.265625 -13.628906 C 0.429688 -16.003906 0.429688 -16.039062 0.726562 -16.960938 C 0.890625 -17.359375 1.023438 -17.953125 1.054688 -18.28125 C 1.089844 -18.546875 1.1875 -18.910156 1.285156 -19.039062 C 1.351562 -19.207031 1.519531 -19.601562 1.617188 -19.898438 C 1.882812 -20.890625 3.265625 -24.421875 3.332031 -24.355469 C 3.398438 -24.320312 3.070312 -23.332031 2.671875 -22.109375 C 2.277344 -20.921875 1.914062 -19.699219 1.847656 -19.46875 C 1.847656 -19.238281 1.714844 -18.910156 1.617188 -18.679688 C 1.519531 -18.511719 1.253906 -17.65625 1.023438 -16.796875 C 0.792969 -15.972656 0.496094 -14.914062 0.363281 -14.554688 C 0.230469 -14.191406 0 -13.429688 -0.0976562 -12.871094 Z M 1.089844 -12.605469 C 0.957031 -12.277344 0.824219 -11.945312 0.726562 -11.945312 C 0.628906 -11.945312 0.59375 -12.046875 0.628906 -12.144531 C 0.660156 -12.277344 0.925781 -13.101562 1.15625 -13.925781 C 1.386719 -14.785156 1.78125 -16.003906 2.011719 -16.632812 C 2.277344 -17.292969 2.441406 -17.886719 2.441406 -17.953125 C 2.410156 -18.214844 3.167969 -20.230469 3.265625 -20.164062 C 3.300781 -20.164062 3.003906 -19.105469 2.574219 -17.820312 C 1.847656 -15.542969 1.550781 -14.617188 1.417969 -13.726562 C 1.351562 -13.496094 1.1875 -13.003906 1.089844 -12.605469 Z M 2.308594 -12.605469 C 2.210938 -12.539062 2.011719 -12.441406 1.945312 -12.40625 C 1.847656 -12.40625 1.847656 -12.441406 1.980469 -12.507812 C 2.046875 -12.539062 2.144531 -12.769531 2.113281 -13.003906 C 2.113281 -13.199219 2.144531 -13.398438 2.242188 -13.464844 C 2.308594 -13.53125 2.507812 -13.992188 2.707031 -14.488281 C 2.839844 -14.980469 3.136719 -15.476562 3.265625 -15.511719 C 3.730469 -15.773438 3.960938 -15.972656 3.695312 -16.136719 C 3.433594 -16.269531 4.058594 -17.292969 4.390625 -17.191406 C 4.554688 -17.128906 4.585938 -17.160156 4.488281 -17.390625 C 4.453125 -17.589844 4.488281 -17.886719 4.753906 -18.183594 C 4.917969 -18.480469 5.050781 -18.613281 5.113281 -18.511719 C 5.113281 -18.382812 5.179688 -18.347656 5.28125 -18.414062 C 5.347656 -18.480469 5.347656 -18.613281 5.28125 -18.710938 C 5.148438 -18.976562 5.710938 -19.964844 6.007812 -19.996094 C 6.105469 -19.996094 6.238281 -20.230469 6.269531 -20.359375 C 6.335938 -20.855469 8.910156 -24.355469 10.261719 -25.804688 C 10.789062 -26.433594 11.386719 -26.929688 11.550781 -26.929688 C 11.746094 -26.960938 11.847656 -26.929688 11.746094 -26.828125 C 11.648438 -26.761719 11.617188 -26.695312 11.1875 -26.632812 C 11.089844 -26.597656 11.054688 -26.53125 11.152344 -26.433594 C 11.21875 -26.335938 11.152344 -26.203125 10.988281 -26.167969 C 10.429688 -25.871094 9.503906 -24.816406 9.371094 -24.253906 C 9.273438 -23.957031 9.140625 -23.660156 9.007812 -23.660156 C 8.941406 -23.628906 8.679688 -23.429688 8.515625 -23.132812 C 8.316406 -22.769531 7.953125 -22.273438 7.722656 -21.910156 C 7.195312 -21.285156 5.941406 -19.171875 5.214844 -17.886719 C 4.949219 -17.457031 4.390625 -16.46875 3.992188 -15.742188 C 3.5625 -14.980469 3.070312 -14.058594 2.902344 -13.628906 C 2.707031 -13.234375 2.476562 -12.769531 2.308594 -12.605469 Z M 4.621094 -17.6875 C 4.585938 -17.457031 4.621094 -17.457031 4.785156 -17.621094 C 5.050781 -17.886719 5.050781 -17.984375 4.851562 -17.953125 C 4.753906 -17.953125 4.652344 -17.851562 4.621094 -17.6875 Z M 4.09375 -19.171875 C 4.125 -18.941406 4.222656 -19.007812 4.390625 -19.402344 C 4.554688 -19.765625 4.519531 -19.765625 4.289062 -19.535156 C 4.191406 -19.402344 4.09375 -19.238281 4.09375 -19.171875 Z M 4.09375 -19.171875 "/></g></g></g><g fill="#b1163d" fill-opacity="1"><g transform="translate(225.14243, 213.356984)"><g><path d="M 22.042969 -16.828125 C 21.582031 -16.367188 21.085938 -15.90625 20.757812 -15.609375 C 19.636719 -14.488281 18.28125 -13.265625 18.214844 -13.300781 C 18.148438 -13.398438 18.808594 -14.125 19.007812 -14.191406 C 19.171875 -14.257812 19.765625 -14.949219 19.667969 -14.949219 C 19.636719 -14.949219 19.207031 -14.585938 18.710938 -14.125 C 18.25 -13.695312 17.722656 -13.199219 17.523438 -13.066406 C 17.324219 -12.9375 17.128906 -12.738281 17.027344 -12.671875 C 16.699219 -12.308594 15.3125 -11.484375 15.148438 -11.484375 C 14.882812 -11.550781 14.816406 -12.144531 14.851562 -14.980469 C 14.914062 -20.492188 14.914062 -20.953125 14.75 -21.253906 C 14.683594 -21.417969 14.554688 -21.648438 14.519531 -21.8125 C 14.289062 -22.273438 13.992188 -22.507812 13.5625 -22.507812 C 13.234375 -22.507812 13.132812 -22.539062 13.132812 -22.636719 C 13.132812 -22.804688 13.101562 -22.804688 12.835938 -22.738281 C 12.574219 -22.703125 12.539062 -22.703125 12.640625 -22.835938 C 12.769531 -22.96875 12.804688 -22.96875 13.101562 -22.835938 C 13.429688 -22.703125 14.15625 -22.636719 14.257812 -22.738281 C 14.386719 -22.867188 14.125 -24.386719 13.859375 -25.113281 C 13.597656 -25.738281 13.464844 -25.972656 12.871094 -26.566406 C 12.472656 -26.929688 12.109375 -27.257812 12.046875 -27.257812 C 12.011719 -27.257812 11.746094 -27.390625 11.515625 -27.589844 C 11.253906 -27.71875 10.824219 -27.949219 10.59375 -28.015625 C 9.964844 -28.214844 8.878906 -28.214844 8.515625 -28.015625 C 8.347656 -27.949219 8.019531 -27.785156 7.722656 -27.652344 C 6.996094 -27.324219 5.875 -26.203125 5.082031 -24.980469 C 4.71875 -24.453125 4.390625 -23.925781 4.324219 -23.792969 C 4.257812 -23.695312 4.09375 -23.59375 3.992188 -23.59375 C 3.628906 -23.59375 3.464844 -23.398438 3.101562 -22.605469 C 2.9375 -22.210938 2.738281 -21.910156 2.707031 -21.910156 C 2.640625 -21.910156 2.507812 -21.648438 2.375 -21.316406 C 2.210938 -20.988281 2.011719 -20.65625 1.914062 -20.558594 C 1.648438 -20.261719 0.726562 -18.480469 0.726562 -18.25 C 0.726562 -18.117188 0.691406 -18.019531 0.660156 -17.984375 C 0.5625 -17.984375 -0.363281 -16.003906 -0.363281 -15.808594 C -0.363281 -15.742188 -0.394531 -15.640625 -0.429688 -15.609375 C -0.691406 -15.277344 -2.046875 -10.789062 -2.046875 -10.195312 C -2.046875 -10 -1.714844 -9.4375 -1.519531 -9.273438 C -1.484375 -9.273438 -1.386719 -9.074219 -1.285156 -8.878906 C -1.222656 -8.644531 -1.054688 -8.449219 -0.957031 -8.414062 C -0.824219 -8.382812 -0.757812 -8.316406 -0.757812 -8.28125 C -0.757812 -8.183594 0.03125 -7.789062 0.199219 -7.789062 C 0.230469 -7.789062 0.394531 -7.6875 0.496094 -7.589844 C 0.757812 -7.390625 1.023438 -7.390625 1.78125 -7.558594 C 2.046875 -7.589844 3.167969 -8.644531 3.101562 -8.777344 C 3.035156 -8.8125 3.101562 -8.976562 3.199219 -9.109375 C 3.332031 -9.238281 3.664062 -9.667969 3.925781 -10.03125 C 4.621094 -10.957031 5.082031 -11.484375 5.214844 -11.484375 C 5.246094 -11.484375 5.3125 -11.484375 5.3125 -11.550781 C 5.3125 -11.582031 5.511719 -11.847656 5.773438 -12.109375 C 6.796875 -13.199219 7.09375 -13.5625 7.09375 -13.597656 C 7.09375 -13.695312 7.953125 -14.75 8.515625 -15.378906 C 8.777344 -15.640625 8.976562 -15.90625 8.976562 -15.972656 C 8.976562 -16.039062 9.175781 -16.300781 9.371094 -16.53125 C 9.601562 -16.796875 9.769531 -17.027344 9.769531 -17.09375 C 9.769531 -17.160156 9.867188 -17.257812 9.964844 -17.324219 C 10.066406 -17.390625 10.195312 -17.554688 10.261719 -17.722656 C 10.328125 -17.886719 10.429688 -18.019531 10.492188 -18.050781 C 10.59375 -18.085938 10.789062 -18.347656 10.957031 -18.679688 C 11.121094 -18.976562 11.417969 -19.402344 11.617188 -19.570312 L 11.945312 -19.933594 L 11.945312 -16.664062 C 11.945312 -14.71875 11.980469 -13.300781 12.046875 -13.167969 C 12.109375 -13.003906 12.210938 -12.703125 12.277344 -12.472656 C 12.34375 -12.242188 12.539062 -11.914062 12.738281 -11.746094 C 12.9375 -11.550781 13.300781 -11.1875 13.5625 -10.890625 C 13.828125 -10.59375 14.222656 -10.230469 14.453125 -10.097656 C 15.214844 -9.667969 16.003906 -9.273438 16.171875 -9.273438 C 16.402344 -9.273438 17.554688 -9.703125 17.820312 -9.867188 C 18.183594 -10.097656 18.679688 -10.625 18.742188 -10.855469 C 18.777344 -10.957031 18.910156 -11.089844 19.074219 -11.1875 C 19.402344 -11.320312 20.722656 -12.539062 20.890625 -12.835938 C 21.085938 -13.199219 20.921875 -13.199219 20.527344 -12.871094 C 19.734375 -12.175781 19.402344 -11.914062 19.105469 -11.847656 C 18.976562 -11.78125 18.84375 -11.8125 18.808594 -11.878906 C 18.777344 -12.046875 18.613281 -11.980469 18.613281 -11.78125 C 18.613281 -11.648438 18.613281 -11.648438 18.511719 -11.78125 C 18.414062 -11.878906 18.316406 -11.878906 17.785156 -11.582031 C 17.425781 -11.417969 17.128906 -11.320312 17.128906 -11.386719 C 17.128906 -11.386719 17.257812 -11.484375 17.425781 -11.582031 C 17.886719 -11.746094 19.007812 -12.605469 19.207031 -12.871094 C 19.304688 -13.066406 19.304688 -13.066406 19.105469 -13.003906 C 19.007812 -12.902344 18.875 -12.804688 18.777344 -12.671875 C 18.679688 -12.574219 18.546875 -12.472656 18.511719 -12.472656 C 18.445312 -12.472656 18.214844 -12.34375 17.984375 -12.175781 C 17.753906 -12.011719 17.554688 -11.878906 17.523438 -11.914062 C 17.523438 -11.945312 17.917969 -12.375 18.511719 -12.9375 C 19.039062 -13.464844 19.933594 -14.320312 20.425781 -14.816406 C 20.953125 -15.3125 21.417969 -15.742188 21.484375 -15.742188 C 21.550781 -15.742188 21.613281 -15.808594 21.648438 -15.90625 C 21.714844 -16.105469 22.042969 -16.433594 22.308594 -16.597656 C 22.210938 -16.664062 22.144531 -16.765625 22.042969 -16.828125 Z M 1.847656 -19.140625 C 3.003906 -21.21875 3.464844 -21.945312 4.15625 -22.636719 C 4.519531 -23 4.816406 -23.265625 4.785156 -23.199219 C 4.6875 -23.066406 4.488281 -22.703125 3.300781 -20.890625 C 3.101562 -20.59375 2.902344 -20.230469 2.871094 -20.097656 C 2.839844 -19.933594 2.773438 -19.800781 2.707031 -19.800781 C 2.671875 -19.800781 2.605469 -19.734375 2.605469 -19.667969 C 2.605469 -19.535156 2.574219 -19.503906 2.476562 -19.570312 C 2.34375 -19.601562 2.308594 -19.570312 2.375 -19.4375 C 2.441406 -19.207031 1.847656 -18.148438 1.714844 -18.316406 C 1.683594 -18.382812 1.617188 -18.414062 1.617188 -18.382812 C 1.617188 -18.316406 1.550781 -18.148438 1.417969 -18.019531 C 1.054688 -17.554688 1.253906 -18.050781 1.847656 -19.140625 Z M 1.519531 -17.621094 C 1.519531 -17.589844 1.484375 -17.523438 1.417969 -17.523438 C 1.285156 -17.523438 1.285156 -17.589844 1.417969 -17.6875 C 1.484375 -17.6875 1.519531 -17.6875 1.519531 -17.621094 Z M -0.988281 -11.683594 L -1.15625 -11.417969 L -1.089844 -11.714844 C -1.054688 -11.878906 -0.988281 -12.078125 -0.925781 -12.175781 C -0.890625 -12.277344 -0.859375 -12.277344 -0.859375 -12.109375 C -0.859375 -12.011719 -0.925781 -11.78125 -0.988281 -11.683594 Z M -0.496094 -10.132812 C -0.59375 -9.964844 -0.660156 -9.933594 -0.660156 -10.097656 C -0.660156 -10.132812 -0.59375 -10.195312 -0.5625 -10.230469 C -0.496094 -10.261719 -0.496094 -10.230469 -0.496094 -10.132812 Z M -0.199219 -13.828125 C -0.164062 -14.089844 -0.164062 -14.058594 -0.296875 -13.792969 C -0.460938 -13.398438 -0.496094 -13.101562 -0.363281 -13.199219 C -0.296875 -13.234375 -0.328125 -13.101562 -0.394531 -12.902344 C -0.460938 -12.671875 -0.496094 -12.605469 -0.527344 -12.738281 C -0.5625 -12.871094 -0.59375 -12.835938 -0.691406 -12.605469 C -0.957031 -12.011719 -0.824219 -12.574219 -0.429688 -13.792969 C 0.296875 -15.972656 1.089844 -17.820312 1.1875 -17.6875 C 1.253906 -17.65625 1.1875 -17.488281 1.089844 -17.292969 C 0.890625 -16.828125 0.527344 -16.039062 0.527344 -15.90625 C 0.527344 -15.871094 0.59375 -15.871094 0.628906 -15.90625 C 0.792969 -16.003906 0.757812 -15.808594 0.527344 -15.277344 C 0.394531 -15.046875 0.265625 -14.816406 0.199219 -14.785156 C 0.0976562 -14.75 0.03125 -14.683594 0.03125 -14.617188 C 0.03125 -14.585938 0.0976562 -14.585938 0.132812 -14.585938 C 0.199219 -14.617188 0.199219 -14.554688 0.132812 -14.386719 C -0.0664062 -13.628906 -0.296875 -13.265625 -0.199219 -13.828125 Z M 1.023438 -16.632812 C 1.023438 -16.566406 0.957031 -16.367188 0.890625 -16.234375 L 0.726562 -16.003906 L 0.792969 -16.234375 C 0.824219 -16.367188 0.890625 -16.566406 0.957031 -16.632812 C 1.023438 -16.765625 1.023438 -16.765625 1.023438 -16.632812 Z M 1.023438 -14.683594 C 0.988281 -14.453125 0.890625 -14.089844 0.792969 -13.992188 C 0.726562 -13.828125 0.527344 -13.300781 0.363281 -12.769531 C -0.03125 -11.582031 -0.164062 -11.386719 -0.132812 -11.878906 C -0.0976562 -12.078125 -0.0976562 -12.277344 -0.03125 -12.277344 C 0.03125 -12.277344 0.164062 -12.640625 0.199219 -13.066406 C 0.230469 -13.265625 0.296875 -13.429688 0.328125 -13.429688 C 0.394531 -13.464844 0.429688 -13.5625 0.429688 -13.695312 C 0.429688 -13.960938 0.726562 -14.75 0.859375 -14.75 C 0.890625 -14.75 0.890625 -14.785156 0.890625 -14.882812 C 0.824219 -15.015625 1.386719 -16.269531 1.484375 -16.171875 C 1.484375 -16.136719 1.484375 -16.203125 1.484375 -16.300781 C 1.453125 -16.402344 1.550781 -16.632812 1.714844 -16.894531 C 1.914062 -17.09375 2.011719 -17.292969 2.046875 -17.324219 C 2.078125 -17.621094 2.144531 -17.886719 2.277344 -18.050781 C 2.375 -18.183594 2.410156 -18.214844 2.410156 -18.183594 C 2.410156 -18.117188 2.476562 -18.148438 2.507812 -18.214844 C 2.574219 -18.28125 2.605469 -18.480469 2.574219 -18.578125 C 2.507812 -18.679688 2.539062 -18.742188 2.605469 -18.710938 C 2.671875 -18.613281 2.9375 -19.140625 2.96875 -19.402344 C 2.96875 -19.503906 3.035156 -19.570312 3.101562 -19.535156 C 3.167969 -19.503906 3.199219 -19.601562 3.167969 -19.699219 C 3.101562 -19.800781 3.136719 -19.800781 3.199219 -19.765625 C 3.265625 -19.734375 3.300781 -19.765625 3.300781 -19.800781 C 3.300781 -19.898438 3.398438 -20.03125 3.496094 -20.195312 C 3.628906 -20.296875 3.695312 -20.492188 3.695312 -20.625 C 3.695312 -20.722656 3.796875 -20.789062 3.859375 -20.789062 C 3.992188 -20.789062 4.15625 -21.085938 4.058594 -21.1875 C 4.027344 -21.253906 4.09375 -21.285156 4.191406 -21.285156 C 4.257812 -21.285156 4.289062 -21.351562 4.289062 -21.417969 C 4.257812 -21.484375 4.289062 -21.582031 4.390625 -21.582031 C 4.554688 -21.582031 4.519531 -21.515625 4.324219 -21.1875 C 3.664062 -20.128906 2.011719 -16.960938 1.78125 -16.300781 C 1.714844 -16.105469 1.519531 -15.808594 1.386719 -15.574219 C 1.253906 -15.34375 1.089844 -14.949219 1.023438 -14.683594 Z M 2.640625 -11.550781 C 2.574219 -11.449219 2.476562 -11.386719 2.410156 -11.386719 C 2.277344 -11.386719 2.308594 -11.484375 2.539062 -11.582031 C 2.738281 -11.683594 2.773438 -11.683594 2.640625 -11.550781 Z M 3.070312 -12.078125 C 2.96875 -12.210938 3.101562 -12.308594 3.234375 -12.175781 C 3.300781 -12.109375 3.300781 -12.078125 3.234375 -12.011719 C 3.199219 -11.980469 3.101562 -12.011719 3.070312 -12.078125 Z M 11.582031 -20.527344 C 11.417969 -20.394531 11.152344 -19.996094 10.957031 -19.699219 C 10.789062 -19.371094 10.558594 -19.007812 10.460938 -18.941406 C 10.394531 -18.84375 10.195312 -18.613281 10.097656 -18.414062 C 9.898438 -18.085938 9.535156 -17.65625 9.207031 -17.292969 C 8.910156 -16.960938 7.855469 -15.574219 7.589844 -15.082031 C 7.324219 -14.652344 5.742188 -12.902344 4.453125 -11.648438 C 2.902344 -10.097656 2.640625 -10.097656 4.15625 -11.683594 C 4.71875 -12.242188 5.511719 -13.101562 5.941406 -13.597656 C 6.664062 -14.453125 8.84375 -17.257812 9.175781 -17.785156 C 9.601562 -18.382812 11.714844 -21.1875 11.78125 -21.1875 C 11.980469 -21.1875 11.847656 -20.789062 11.582031 -20.527344 Z M 11.945312 -23.398438 C 11.847656 -23.199219 11.714844 -23.101562 11.648438 -23.101562 C 11.617188 -23.101562 11.550781 -22.96875 11.550781 -22.835938 C 11.550781 -22.703125 11.417969 -22.441406 11.21875 -22.242188 C 11.023438 -22.042969 10.855469 -21.8125 10.855469 -21.746094 C 10.855469 -21.714844 10.789062 -21.515625 10.691406 -21.417969 C 10.59375 -21.285156 10.394531 -21.085938 10.296875 -20.953125 C 10.195312 -20.824219 10.097656 -20.722656 10.03125 -20.789062 C 10 -20.789062 9.964844 -20.789062 10 -20.691406 C 10.066406 -20.492188 9.800781 -19.996094 9.667969 -20.0625 C 9.601562 -20.097656 9.503906 -19.933594 9.40625 -19.699219 C 9.304688 -19.503906 9.175781 -19.304688 9.074219 -19.273438 C 8.976562 -19.238281 8.878906 -19.105469 8.878906 -19.039062 C 8.878906 -18.941406 8.8125 -18.808594 8.679688 -18.742188 C 8.578125 -18.679688 8.480469 -18.578125 8.480469 -18.511719 C 8.480469 -18.445312 8.382812 -18.316406 8.21875 -18.183594 C 8.117188 -18.085938 8.019531 -17.984375 8.050781 -17.886719 C 8.085938 -17.851562 8.019531 -17.722656 7.921875 -17.621094 C 7.789062 -17.523438 7.6875 -17.390625 7.6875 -17.292969 C 7.6875 -17.226562 7.621094 -17.128906 7.523438 -17.09375 C 7.457031 -17.0625 7.390625 -16.960938 7.390625 -16.894531 C 7.390625 -16.796875 7.324219 -16.730469 7.226562 -16.730469 C 7.160156 -16.730469 7.09375 -16.632812 7.09375 -16.5 C 7.09375 -16.203125 7.09375 -16.203125 7.492188 -16.597656 C 7.722656 -16.828125 7.886719 -17.027344 7.886719 -17.09375 C 7.886719 -17.09375 8.019531 -17.292969 8.152344 -17.523438 C 8.28125 -17.722656 8.382812 -17.953125 8.316406 -18.019531 C 8.316406 -18.085938 8.347656 -18.117188 8.480469 -18.117188 C 8.578125 -18.117188 8.746094 -18.25 8.8125 -18.382812 C 9.074219 -18.777344 10.394531 -20.527344 10.527344 -20.691406 C 10.59375 -20.757812 10.660156 -20.855469 10.660156 -20.890625 C 10.660156 -20.988281 10.855469 -21.21875 11.121094 -21.484375 C 11.351562 -21.714844 11.550781 -22.011719 11.550781 -22.078125 C 11.550781 -22.144531 11.617188 -22.210938 11.648438 -22.210938 C 11.78125 -22.210938 11.878906 -21.910156 11.8125 -21.78125 C 11.714844 -21.613281 10.492188 -19.996094 10.132812 -19.570312 C 10 -19.402344 9.703125 -19.007812 9.503906 -18.679688 C 8.613281 -17.425781 8.382812 -17.09375 8.085938 -16.796875 C 7.921875 -16.632812 7.789062 -16.46875 7.789062 -16.433594 C 7.789062 -16.402344 7.558594 -16.105469 7.292969 -15.707031 C 6.996094 -15.378906 6.730469 -14.980469 6.632812 -14.882812 C 6.238281 -14.386719 4.488281 -12.472656 3.859375 -11.847656 C 3.367188 -11.386719 3.167969 -11.21875 3.136719 -11.351562 C 3.101562 -11.417969 3.167969 -11.550781 3.265625 -11.582031 C 3.332031 -11.648438 3.398438 -11.746094 3.398438 -11.8125 C 3.398438 -11.878906 3.53125 -12.046875 3.695312 -12.144531 C 3.828125 -12.242188 3.992188 -12.375 4.058594 -12.472656 C 4.09375 -12.539062 4.222656 -12.703125 4.355469 -12.804688 C 4.785156 -13.234375 5.410156 -14.058594 5.410156 -14.15625 C 5.410156 -14.191406 5.542969 -14.355469 5.710938 -14.488281 C 5.875 -14.585938 6.007812 -14.75 6.007812 -14.785156 C 6.007812 -14.882812 6.070312 -14.949219 6.136719 -14.980469 C 6.238281 -15.015625 6.304688 -15.113281 6.304688 -15.214844 C 6.304688 -15.34375 6.402344 -15.445312 6.5 -15.476562 C 6.699219 -15.511719 6.796875 -15.839844 6.566406 -15.839844 C 6.402344 -15.839844 5.808594 -15.148438 5.875 -15.015625 C 5.90625 -14.949219 5.808594 -14.851562 5.675781 -14.785156 C 5.542969 -14.75 5.476562 -14.617188 5.476562 -14.519531 C 5.476562 -14.386719 5.445312 -14.355469 5.347656 -14.386719 C 5.28125 -14.421875 5.214844 -14.386719 5.214844 -14.386719 C 5.214844 -14.320312 5.082031 -14.15625 4.917969 -13.992188 C 4.6875 -13.726562 4.519531 -13.695312 4.355469 -13.695312 C 4.191406 -13.761719 4.09375 -13.726562 4.058594 -13.5625 C 4.027344 -13.464844 3.796875 -13.132812 3.496094 -12.902344 C 3.199219 -12.605469 2.738281 -12.175781 2.410156 -11.878906 C 2.113281 -11.582031 1.78125 -11.253906 1.683594 -11.1875 C 1.519531 -11.023438 1.484375 -11.054688 1.585938 -11.285156 C 1.617188 -11.386719 1.714844 -11.683594 1.816406 -11.847656 C 1.882812 -12.046875 1.914062 -12.277344 1.914062 -12.34375 C 1.914062 -12.441406 2.078125 -12.804688 2.210938 -13.101562 C 2.410156 -13.398438 2.507812 -13.761719 2.507812 -13.828125 C 2.507812 -13.992188 2.839844 -14.683594 4.125 -17.324219 C 5.082031 -19.207031 6.304688 -21.253906 7.195312 -22.40625 C 7.492188 -22.769531 8.019531 -23.398438 8.316406 -23.824219 C 8.644531 -24.253906 9.207031 -24.816406 9.503906 -25.113281 C 10.195312 -25.707031 11.054688 -26.300781 11.121094 -26.234375 C 11.253906 -26.101562 11.945312 -24.550781 12.046875 -24.15625 C 12.144531 -23.695312 12.144531 -23.628906 11.945312 -23.398438 Z M 3.695312 -12.902344 C 3.796875 -13.003906 3.859375 -13.066406 3.894531 -13.066406 C 3.894531 -13.066406 3.894531 -13.003906 3.859375 -12.902344 C 3.828125 -12.835938 3.761719 -12.769531 3.695312 -12.769531 C 3.628906 -12.769531 3.628906 -12.835938 3.695312 -12.902344 Z M 4.191406 -13.398438 C 4.191406 -13.496094 4.257812 -13.53125 4.289062 -13.496094 C 4.390625 -13.496094 4.390625 -13.398438 4.390625 -13.363281 C 4.390625 -13.300781 4.390625 -13.265625 4.289062 -13.265625 C 4.257812 -13.265625 4.191406 -13.332031 4.191406 -13.398438 Z M 12.902344 -12.804688 C 12.769531 -12.671875 12.640625 -16.003906 12.738281 -16.996094 C 12.804688 -17.390625 12.835938 -16.730469 12.902344 -15.179688 C 12.902344 -13.894531 12.9375 -12.804688 12.902344 -12.804688 Z M 22.671875 -16.335938 C 22.042969 -15.675781 21.449219 -15.082031 21.316406 -14.949219 C 20.855469 -14.386719 21.613281 -15.046875 22.867188 -16.203125 C 22.804688 -16.234375 22.738281 -16.300781 22.671875 -16.335938 Z M 22.671875 -16.335938 "/></g></g></g><g fill="#304684" fill-opacity="1"><g transform="translate(248.533054, 213.356984)"><g><path d="M 5.113281 -5.742188 C 4.191406 -5.90625 2.9375 -6.699219 2.640625 -7.226562 C 2.210938 -8.152344 1.945312 -9.042969 2.179688 -9.074219 C 2.277344 -9.074219 2.113281 -9.304688 1.816406 -9.503906 C 1.519531 -9.769531 1.15625 -9.898438 0.988281 -9.835938 C 0.792969 -9.703125 0.726562 -9.769531 0.757812 -9.933594 C 0.824219 -10.59375 -0.132812 -11.945312 -0.363281 -11.449219 C -0.496094 -11.285156 -0.527344 -11.285156 -0.691406 -11.484375 C -1.054688 -11.914062 -1.054688 -13.035156 -0.691406 -13.792969 C -0.527344 -14.191406 -0.394531 -14.785156 -0.429688 -15.046875 C -0.429688 -15.378906 -0.429688 -15.640625 -0.296875 -15.707031 C -0.199219 -15.808594 0.03125 -16.566406 0.230469 -17.523438 C 0.757812 -20.097656 1.714844 -23.496094 2.902344 -27.390625 C 3.265625 -28.675781 3.761719 -30.261719 3.925781 -30.953125 C 4.125 -31.546875 4.289062 -32.175781 4.390625 -32.242188 C 4.488281 -32.308594 4.554688 -32.4375 4.554688 -32.636719 C 4.519531 -32.769531 5.179688 -34.75 5.90625 -37.058594 C 8.152344 -43.59375 9.4375 -46.925781 10.132812 -48.046875 C 10.59375 -48.808594 10.625 -48.9375 10.261719 -48.773438 C 10.097656 -48.707031 10 -48.742188 10 -48.839844 C 9.964844 -49.039062 10.195312 -49.136719 11.351562 -49.433594 C 11.914062 -49.566406 13.695312 -49.171875 13.726562 -48.9375 C 13.726562 -48.871094 13.960938 -48.542969 14.15625 -48.277344 L 14.617188 -47.75 L 14.222656 -46.925781 C 14.023438 -46.496094 13.726562 -45.96875 13.597656 -45.804688 C 13.234375 -45.277344 12.308594 -43.363281 12.308594 -43.132812 C 12.308594 -43.03125 12.078125 -42.472656 11.847656 -41.878906 C 11.386719 -40.820312 10 -36.859375 9.007812 -33.59375 C 8.746094 -32.734375 8.449219 -31.8125 8.382812 -31.582031 C 8.28125 -31.382812 8.152344 -30.886719 8.085938 -30.523438 C 7.984375 -30.195312 7.820312 -29.667969 7.722656 -29.371094 C 7.589844 -29.140625 7.359375 -28.347656 7.195312 -27.652344 C 6.996094 -26.960938 6.730469 -26.167969 6.632812 -25.804688 C 6.304688 -24.847656 6.007812 -23.628906 6.039062 -23.332031 C 6.039062 -23.164062 6.136719 -23.199219 6.402344 -23.464844 C 6.566406 -23.695312 6.730469 -23.957031 6.730469 -24.058594 C 6.730469 -24.15625 6.863281 -24.289062 6.996094 -24.355469 C 7.128906 -24.421875 7.195312 -24.550781 7.160156 -24.683594 C 7.0625 -24.78125 7.09375 -24.816406 7.226562 -24.847656 C 7.359375 -24.816406 7.457031 -24.914062 7.457031 -24.980469 C 7.390625 -25.144531 7.425781 -25.246094 7.523438 -25.246094 C 7.621094 -25.246094 7.820312 -25.441406 8.019531 -25.609375 C 8.183594 -25.804688 8.382812 -26.003906 8.480469 -26.003906 C 8.644531 -26.035156 8.679688 -26.167969 8.613281 -26.367188 C 8.546875 -26.632812 8.613281 -26.695312 8.910156 -26.597656 C 9.207031 -26.53125 9.339844 -26.597656 9.304688 -26.796875 C 9.304688 -26.960938 9.4375 -27.058594 9.570312 -27.09375 C 9.769531 -27.09375 10.164062 -27.355469 10.460938 -27.6875 C 10.757812 -27.917969 11.121094 -28.148438 11.21875 -28.148438 C 11.253906 -28.148438 11.449219 -28.183594 11.648438 -28.28125 C 12.441406 -28.675781 13.597656 -28.875 14.023438 -28.644531 C 14.289062 -28.546875 14.71875 -28.480469 14.882812 -28.480469 C 15.609375 -28.511719 16.632812 -27.917969 17.09375 -27.160156 C 17.851562 -26.070312 17.785156 -23.398438 16.929688 -21.253906 C 16.796875 -20.953125 16.730469 -20.625 16.765625 -20.558594 C 16.765625 -20.261719 16.003906 -18.28125 15.773438 -18.117188 C 15.675781 -18.085938 15.34375 -17.425781 15.082031 -16.699219 C 14.816406 -15.972656 14.257812 -14.816406 13.792969 -14.089844 C 13.398438 -13.332031 13.066406 -12.703125 13.066406 -12.671875 C 13.066406 -12.605469 12.835938 -12.210938 12.574219 -11.8125 C 12.277344 -11.417969 11.78125 -10.691406 11.449219 -10.195312 C 9.140625 -6.929688 6.996094 -5.445312 5.113281 -5.742188 Z M 7.492188 -7.492188 C 8.152344 -8.117188 8.679688 -8.613281 8.613281 -8.644531 C 8.578125 -8.710938 8.347656 -8.546875 8.117188 -8.347656 C 7.789062 -7.984375 7.789062 -8.019531 8.117188 -8.480469 C 8.382812 -8.8125 8.578125 -9.042969 8.644531 -8.941406 C 8.84375 -8.8125 9.175781 -9.304688 9.074219 -9.535156 C 9.007812 -9.667969 9.074219 -9.898438 9.238281 -10.066406 C 9.4375 -10.230469 9.570312 -10.328125 9.570312 -10.261719 C 9.636719 -10.132812 10.429688 -10.757812 10.394531 -10.957031 C 10.394531 -11.054688 10.261719 -10.988281 10.097656 -10.824219 C 9.867188 -10.625 9.835938 -10.625 9.898438 -10.824219 C 9.964844 -10.957031 10.230469 -11.1875 10.460938 -11.285156 C 10.789062 -11.417969 10.855469 -11.582031 10.855469 -11.878906 C 10.789062 -12.109375 10.855469 -12.308594 10.957031 -12.308594 C 11.089844 -12.308594 11.351562 -12.605469 11.550781 -12.902344 C 11.746094 -13.265625 11.847656 -13.464844 11.746094 -13.363281 C 11.617188 -13.265625 11.515625 -13.300781 11.515625 -13.398438 C 11.484375 -13.792969 11.1875 -13.53125 10.726562 -12.671875 C 10.097656 -11.386719 7.425781 -7.855469 6.535156 -7.128906 C 6.203125 -6.832031 5.875 -6.535156 5.875 -6.46875 C 5.90625 -6.238281 6.433594 -6.566406 7.492188 -7.492188 Z M 11.1875 -12.902344 C 11.253906 -13.066406 11.449219 -13.199219 11.484375 -13.199219 C 11.515625 -13.199219 11.449219 -13.101562 11.351562 -12.902344 C 11.253906 -12.738281 11.121094 -12.605469 11.054688 -12.605469 C 11.023438 -12.605469 11.054688 -12.738281 11.1875 -12.902344 Z M 6.367188 -7.457031 C 7.160156 -8.117188 8.183594 -9.40625 9.175781 -10.890625 C 9.472656 -11.285156 9.867188 -11.847656 10.03125 -12.078125 C 10.394531 -12.605469 10.527344 -12.738281 11.648438 -15.082031 C 12.144531 -16.105469 12.703125 -17.191406 12.835938 -17.425781 C 13.363281 -18.347656 14.222656 -20.953125 14.320312 -21.714844 C 14.355469 -22.308594 14.355469 -22.308594 14.15625 -21.847656 C 13.429688 -19.867188 12.375 -17.324219 11.617188 -15.839844 C 11.121094 -14.851562 10.726562 -13.960938 10.726562 -13.925781 C 10.726562 -13.828125 10.660156 -13.726562 10.59375 -13.695312 C 10.527344 -13.628906 10 -12.902344 9.472656 -12.046875 C 8.941406 -11.152344 7.753906 -9.601562 6.898438 -8.613281 C 6.039062 -7.558594 5.410156 -6.699219 5.511719 -6.730469 C 5.542969 -6.730469 5.941406 -7.09375 6.367188 -7.457031 Z M 8.449219 -7.457031 C 8.414062 -7.523438 8.347656 -7.523438 8.25 -7.492188 C 8.152344 -7.492188 8.050781 -7.425781 8.085938 -7.292969 C 8.085938 -7.195312 8.183594 -7.160156 8.25 -7.226562 C 8.347656 -7.324219 8.449219 -7.425781 8.449219 -7.457031 Z M 5.082031 -7.855469 C 5.644531 -8.316406 7.457031 -10.394531 8.050781 -11.21875 C 9.636719 -13.660156 10.132812 -14.386719 10.097656 -14.585938 C 10.097656 -14.683594 10.132812 -14.785156 10.230469 -14.816406 C 10.460938 -14.949219 12.109375 -18.214844 12.835938 -20.128906 C 13.894531 -22.738281 14.257812 -24.089844 14.191406 -25.476562 L 14.15625 -26.761719 L 13.464844 -26.597656 C 11.320312 -26.203125 7.855469 -21.847656 5.941406 -17.324219 C 4.453125 -13.792969 4.09375 -12.507812 3.859375 -10.394531 C 3.761719 -9.472656 3.664062 -9.140625 3.398438 -9.042969 C 2.96875 -8.910156 3.101562 -8.347656 3.761719 -7.753906 C 4.289062 -7.292969 4.390625 -7.292969 5.082031 -7.855469 Z M 10.558594 -10.230469 C 11.417969 -11.648438 10.957031 -11.121094 9.734375 -9.339844 C 8.976562 -8.25 8.910156 -8.019531 9.339844 -8.515625 C 9.734375 -8.941406 10.261719 -9.667969 10.558594 -10.230469 Z M 11.878906 -11.8125 C 11.980469 -11.746094 12.011719 -11.847656 12.011719 -12.011719 C 11.980469 -12.210938 12.144531 -12.640625 12.40625 -12.9375 C 12.769531 -13.496094 12.871094 -13.859375 12.703125 -13.859375 C 12.605469 -13.859375 11.285156 -11.714844 11.285156 -11.582031 C 11.285156 -11.550781 11.386719 -11.550781 11.515625 -11.683594 C 11.648438 -11.8125 11.8125 -11.847656 11.878906 -11.8125 Z M 1.222656 -14.488281 C 1.386719 -14.683594 1.519531 -15.046875 1.484375 -15.277344 C 1.453125 -15.574219 1.585938 -15.808594 1.75 -15.9375 C 1.945312 -15.972656 1.945312 -16.070312 1.75 -16.171875 C 1.550781 -16.234375 1.550781 -16.433594 1.648438 -16.664062 C 2.078125 -17.722656 2.308594 -18.546875 2.144531 -18.84375 C 2.078125 -19.140625 2.046875 -19.238281 2.210938 -19.140625 C 2.34375 -19.074219 2.441406 -19.207031 2.410156 -19.503906 C 2.375 -19.765625 2.476562 -19.964844 2.574219 -19.964844 C 2.707031 -19.964844 2.738281 -20.128906 2.640625 -20.296875 C 2.574219 -20.425781 2.605469 -20.625 2.773438 -20.691406 C 2.9375 -20.757812 3.070312 -21.1875 3.070312 -21.648438 C 3.101562 -22.078125 3.234375 -22.539062 3.367188 -22.703125 C 3.496094 -22.804688 3.664062 -23.296875 3.664062 -23.761719 C 3.664062 -24.1875 3.828125 -24.652344 3.960938 -24.816406 C 4.09375 -24.914062 4.222656 -25.113281 4.191406 -25.210938 C 4.191406 -25.34375 4.289062 -25.738281 4.421875 -26.070312 C 4.621094 -26.597656 4.652344 -26.796875 4.453125 -26.863281 C 4.257812 -26.992188 4.289062 -27.191406 4.453125 -27.851562 C 4.621094 -28.3125 4.816406 -28.777344 4.949219 -28.90625 C 5.214844 -29.105469 6.136719 -31.648438 6.070312 -31.8125 C 6.007812 -31.910156 6.070312 -32.175781 6.203125 -32.371094 C 6.367188 -32.769531 6.367188 -32.835938 6.171875 -32.800781 C 5.972656 -32.800781 5.972656 -32.867188 6.136719 -33.03125 C 6.269531 -33.199219 6.335938 -33.460938 6.335938 -33.660156 C 6.304688 -33.859375 6.46875 -34.222656 6.730469 -34.484375 C 6.996094 -34.78125 7.09375 -35.078125 7.0625 -35.277344 C 6.996094 -35.410156 7.027344 -35.507812 7.128906 -35.507812 C 7.226562 -35.507812 7.226562 -35.804688 7.226562 -36.136719 L 7.128906 -36.664062 L 6.832031 -36.234375 C 6.664062 -35.96875 6.535156 -35.871094 6.535156 -35.96875 C 6.5 -36.101562 6.535156 -36.265625 6.632812 -36.300781 C 6.730469 -36.367188 6.832031 -36.664062 6.929688 -36.925781 C 6.929688 -37.222656 7.128906 -37.851562 7.261719 -38.3125 C 7.457031 -38.808594 7.722656 -39.632812 7.921875 -40.0625 C 8.578125 -41.941406 8.8125 -42.667969 8.710938 -42.703125 C 8.644531 -42.800781 6.898438 -38.445312 6.898438 -38.214844 C 6.929688 -38.113281 6.730469 -37.621094 6.535156 -37.09375 C 5.839844 -35.210938 3.796875 -28.675781 2.96875 -25.804688 C 2.804688 -25.246094 2.507812 -24.253906 2.308594 -23.59375 C 1.914062 -22.242188 1.121094 -19.105469 0.660156 -16.730469 C 0.460938 -15.808594 0.164062 -14.683594 0.0664062 -14.257812 C -0.03125 -13.828125 -0.0976562 -13.265625 -0.0664062 -13.003906 C 0.0664062 -12.703125 0.132812 -12.835938 0.296875 -13.597656 C 0.394531 -14.222656 0.496094 -14.683594 0.496094 -14.75 C 0.496094 -14.851562 0.5625 -15.113281 0.726562 -15.410156 C 0.824219 -15.773438 0.957031 -16.039062 0.957031 -16.105469 C 0.925781 -16.46875 1.15625 -17.226562 1.285156 -17.257812 C 1.320312 -17.257812 1.285156 -16.730469 1.15625 -16.070312 C 0.757812 -14.488281 0.527344 -12.738281 0.660156 -12.605469 C 0.757812 -12.574219 0.824219 -12.871094 0.890625 -13.332031 C 0.890625 -13.761719 1.054688 -14.289062 1.222656 -14.488281 Z M 1.320312 -17.917969 C 1.417969 -18.578125 1.617188 -18.910156 1.847656 -18.742188 C 1.914062 -18.644531 1.914062 -18.546875 1.78125 -18.445312 C 1.714844 -18.414062 1.550781 -18.117188 1.484375 -17.820312 C 1.253906 -17.390625 1.253906 -17.390625 1.320312 -17.917969 Z M 1.78125 -20.296875 C 1.78125 -20.359375 1.847656 -20.558594 1.980469 -20.65625 C 2.210938 -20.890625 2.242188 -20.824219 2.179688 -20.558594 C 2.113281 -20.164062 1.816406 -19.964844 1.78125 -20.296875 Z M 2.375 -22.472656 C 2.34375 -22.539062 2.441406 -22.636719 2.539062 -22.671875 C 2.605469 -22.769531 2.707031 -22.738281 2.707031 -22.636719 C 2.738281 -22.507812 2.640625 -22.40625 2.539062 -22.40625 C 2.476562 -22.40625 2.375 -22.441406 2.375 -22.472656 Z M 2.839844 -23.464844 C 2.773438 -23.726562 3.136719 -24.882812 3.300781 -24.882812 C 3.398438 -24.914062 3.433594 -24.71875 3.433594 -24.453125 C 3.433594 -24.222656 3.367188 -23.957031 3.234375 -23.957031 C 3.101562 -23.957031 2.96875 -23.792969 2.9375 -23.59375 C 2.902344 -23.464844 2.839844 -23.363281 2.839844 -23.464844 Z M 3.234375 -25.542969 C 3.234375 -25.609375 3.332031 -25.707031 3.398438 -25.738281 C 3.496094 -25.839844 3.597656 -25.804688 3.597656 -25.707031 C 3.597656 -25.574219 3.53125 -25.476562 3.433594 -25.476562 C 3.332031 -25.476562 3.234375 -25.507812 3.234375 -25.542969 Z M 4.09375 -26.464844 C 4.09375 -26.597656 4.191406 -26.664062 4.257812 -26.664062 C 4.519531 -26.664062 4.519531 -26.597656 4.289062 -26.367188 C 4.191406 -26.335938 4.125 -26.367188 4.09375 -26.464844 Z M 3.992188 -27.984375 C 3.960938 -28.183594 4.027344 -28.414062 4.222656 -28.546875 C 4.519531 -28.875 4.554688 -28.609375 4.257812 -28.117188 C 4.058594 -27.753906 3.992188 -27.753906 3.992188 -27.984375 Z M 4.816406 -30.558594 C 4.851562 -30.722656 4.984375 -30.820312 5.015625 -30.789062 C 5.082031 -30.691406 5.050781 -30.558594 4.917969 -30.425781 C 4.753906 -30.195312 4.71875 -30.261719 4.816406 -30.558594 Z M 5.609375 -33.328125 C 5.609375 -33.429688 5.675781 -33.5625 5.773438 -33.628906 C 5.875 -33.726562 5.972656 -33.691406 5.972656 -33.59375 C 5.972656 -33.496094 5.90625 -33.328125 5.808594 -33.230469 C 5.710938 -33.199219 5.609375 -33.230469 5.609375 -33.328125 Z M 12.539062 -14.554688 C 13.035156 -15.511719 13.167969 -16.136719 12.769531 -15.445312 C 12.539062 -15.148438 12.507812 -15.148438 12.472656 -15.34375 C 12.472656 -15.511719 12.640625 -15.871094 12.804688 -16.105469 C 13.035156 -16.46875 13.132812 -16.5 13.066406 -16.269531 C 12.96875 -15.839844 13.101562 -15.90625 13.332031 -16.402344 C 13.464844 -16.730469 13.429688 -16.765625 13.332031 -16.632812 C 13.132812 -16.5 13.101562 -16.566406 13.167969 -16.730469 C 13.199219 -16.894531 13.300781 -16.996094 13.429688 -16.996094 C 13.660156 -17.027344 14.023438 -17.621094 14.191406 -18.183594 C 14.257812 -18.480469 14.257812 -18.511719 14.023438 -18.316406 C 13.859375 -18.148438 13.761719 -17.917969 13.792969 -17.785156 C 13.792969 -17.589844 13.660156 -17.523438 13.53125 -17.554688 C 13.363281 -17.589844 13.066406 -17.191406 12.671875 -16.367188 C 12.078125 -15.113281 12.011719 -14.816406 12.308594 -15.046875 C 12.574219 -15.246094 12.539062 -15.113281 12.144531 -14.320312 C 11.648438 -13.300781 11.980469 -13.464844 12.539062 -14.554688 Z M 11.878906 -14.257812 C 11.945312 -14.453125 11.847656 -14.488281 11.714844 -14.421875 C 11.515625 -14.355469 11.484375 -14.222656 11.550781 -14.125 C 11.714844 -13.925781 11.746094 -13.960938 11.878906 -14.257812 Z M 14.15625 -16.039062 C 14.222656 -15.90625 14.257812 -15.9375 14.355469 -16.136719 C 14.355469 -16.335938 14.355469 -16.433594 14.289062 -16.367188 C 14.191406 -16.269531 14.089844 -16.335938 14.023438 -16.433594 C 13.992188 -16.566406 13.792969 -16.367188 13.660156 -15.972656 L 13.363281 -15.3125 L 13.726562 -15.773438 C 13.925781 -16.070312 14.089844 -16.171875 14.15625 -16.039062 Z M 14.519531 -16.960938 C 14.453125 -17.128906 14.488281 -17.359375 14.585938 -17.554688 C 14.71875 -17.753906 14.617188 -17.753906 14.421875 -17.488281 C 14.023438 -17.09375 13.859375 -16.664062 14.222656 -16.863281 C 14.320312 -16.960938 14.421875 -16.929688 14.421875 -16.828125 C 14.421875 -16.699219 14.488281 -16.632812 14.519531 -16.632812 C 14.585938 -16.632812 14.585938 -16.765625 14.519531 -16.960938 Z M 15.34375 -19.503906 C 15.3125 -19.667969 15.179688 -19.535156 15.082031 -19.238281 C 14.75 -18.546875 14.785156 -18.316406 15.113281 -18.808594 C 15.214844 -19.074219 15.34375 -19.339844 15.34375 -19.503906 Z M 14.585938 -20.03125 C 14.519531 -20.164062 14.519531 -20.230469 14.683594 -20.128906 C 14.816406 -20.0625 14.949219 -20.195312 15.082031 -20.492188 C 15.246094 -21.1875 15.246094 -21.253906 15.015625 -21.054688 C 14.914062 -21.019531 14.851562 -21.054688 14.816406 -21.152344 C 14.816406 -21.285156 14.914062 -21.316406 15.082031 -21.351562 C 15.378906 -21.382812 15.378906 -21.382812 15.34375 -22.308594 C 15.34375 -22.671875 15.378906 -23.464844 15.378906 -24.089844 C 15.410156 -25.179688 15.378906 -25.210938 15.214844 -24.617188 C 15.082031 -24.355469 14.980469 -23.957031 14.980469 -23.824219 C 15.015625 -23.695312 14.882812 -23.398438 14.71875 -23.199219 C 14.421875 -22.804688 14.617188 -22.042969 15.046875 -22.078125 C 15.179688 -22.109375 15.3125 -22.078125 15.3125 -21.910156 C 15.34375 -21.847656 15.214844 -21.78125 15.015625 -21.746094 C 14.816406 -21.78125 14.617188 -21.417969 14.289062 -20.359375 C 13.761719 -18.613281 13.761719 -18.480469 14.320312 -19.238281 C 14.585938 -19.570312 14.683594 -19.898438 14.585938 -20.03125 Z M 14.617188 -19.007812 C 14.617188 -19.074219 14.519531 -19.039062 14.421875 -19.039062 C 14.355469 -19.039062 14.257812 -18.976562 14.257812 -18.84375 C 14.257812 -18.742188 14.355469 -18.710938 14.453125 -18.777344 C 14.554688 -18.875 14.617188 -18.976562 14.617188 -19.007812 Z M 6.070312 -19.933594 C 6.238281 -20.261719 6.402344 -20.460938 6.535156 -20.460938 C 6.699219 -20.492188 6.832031 -20.59375 6.796875 -20.722656 C 6.796875 -20.953125 8.8125 -23.824219 10 -25.246094 C 10.757812 -26.203125 10.855469 -26.300781 10.328125 -25.9375 C 10 -25.707031 9.503906 -25.210938 9.207031 -24.816406 C 7.984375 -23.398438 7.589844 -22.769531 7.589844 -22.605469 C 7.589844 -22.539062 7.457031 -22.40625 7.324219 -22.40625 C 7.128906 -22.40625 7.0625 -22.308594 7.0625 -22.109375 C 7.09375 -21.976562 6.964844 -21.78125 6.832031 -21.714844 C 6.632812 -21.648438 6.566406 -21.449219 6.566406 -21.316406 C 6.601562 -21.1875 6.335938 -20.824219 6.070312 -20.492188 C 5.773438 -20.128906 5.578125 -19.734375 5.578125 -19.601562 C 5.609375 -19.402344 5.476562 -19.273438 5.347656 -19.238281 C 5.179688 -19.238281 5.113281 -19.039062 5.148438 -18.679688 L 5.148438 -18.117188 L 5.511719 -18.742188 C 5.710938 -19.140625 5.972656 -19.636719 6.070312 -19.933594 Z M 6.898438 -22.703125 C 7.195312 -23.101562 7.359375 -23.398438 7.292969 -23.496094 C 7.09375 -23.660156 4.949219 -20.394531 4.984375 -19.933594 C 5.015625 -19.832031 5.3125 -20.296875 5.675781 -20.921875 C 6.039062 -21.550781 6.601562 -22.339844 6.898438 -22.703125 Z M 4.6875 -21.582031 C 4.652344 -21.714844 4.554688 -21.8125 4.488281 -21.8125 C 4.390625 -21.8125 4.289062 -21.648438 4.324219 -21.417969 C 4.324219 -21.21875 4.421875 -21.085938 4.519531 -21.152344 C 4.621094 -21.253906 4.6875 -21.449219 4.6875 -21.582031 Z M 5.378906 -23.363281 C 5.511719 -23.890625 5.710938 -24.617188 5.808594 -24.914062 C 5.972656 -25.3125 5.972656 -25.441406 5.808594 -25.507812 C 5.609375 -25.609375 5.542969 -25.507812 5.511719 -25.210938 C 5.445312 -24.980469 5.246094 -24.355469 5.015625 -23.726562 C 4.585938 -22.671875 4.488281 -22.175781 4.753906 -21.976562 C 4.949219 -21.8125 5.148438 -22.175781 5.378906 -23.363281 Z M 9.734375 -26.167969 C 9.867188 -26.300781 9.734375 -26.269531 9.472656 -26.035156 C 8.8125 -25.476562 7.65625 -24.222656 7.65625 -24.023438 C 7.6875 -23.925781 8.941406 -25.210938 9.734375 -26.167969 Z M 4.355469 -24.386719 C 4.324219 -24.453125 4.257812 -24.320312 4.289062 -24.121094 C 4.324219 -23.890625 4.355469 -23.890625 4.390625 -24.058594 C 4.453125 -24.1875 4.421875 -24.320312 4.355469 -24.386719 Z M 4.984375 -24.980469 C 4.949219 -25.046875 4.882812 -25.015625 4.785156 -25.015625 C 4.6875 -25.015625 4.585938 -24.949219 4.621094 -24.816406 C 4.621094 -24.71875 4.71875 -24.683594 4.816406 -24.75 C 4.882812 -24.847656 4.984375 -24.949219 4.984375 -24.980469 Z M 5.710938 -26.367188 C 5.644531 -26.433594 5.609375 -26.300781 5.644531 -26.101562 C 5.644531 -25.871094 5.710938 -25.871094 5.742188 -26.035156 C 5.808594 -26.167969 5.742188 -26.300781 5.710938 -26.367188 Z M 6.136719 -27.289062 C 6.304688 -27.589844 6.335938 -27.753906 6.238281 -27.753906 C 6.203125 -27.753906 6.039062 -27.554688 5.90625 -27.257812 C 5.839844 -27.027344 5.808594 -26.796875 5.808594 -26.796875 C 5.839844 -26.796875 6.007812 -27.027344 6.136719 -27.289062 Z M 13.792969 -28.347656 C 13.660156 -28.480469 13.429688 -28.511719 13.199219 -28.511719 C 12.835938 -28.480469 12.835938 -28.414062 13.332031 -28.3125 C 13.5625 -28.28125 13.792969 -28.214844 13.828125 -28.214844 C 13.894531 -28.214844 13.828125 -28.28125 13.792969 -28.347656 Z M 4.949219 -27.984375 C 5.113281 -28.445312 4.984375 -28.445312 4.785156 -28.015625 C 4.652344 -27.820312 4.621094 -27.621094 4.71875 -27.621094 C 4.816406 -27.652344 4.917969 -27.785156 4.949219 -27.984375 Z M 7.0625 -28.84375 C 7.160156 -29.335938 7.292969 -29.765625 7.390625 -29.800781 C 7.621094 -30.03125 7.589844 -30.292969 7.359375 -30.292969 C 7.0625 -30.261719 6.367188 -28.546875 6.566406 -28.445312 C 6.664062 -28.414062 6.730469 -28.214844 6.699219 -28.082031 C 6.664062 -27.917969 6.664062 -27.820312 6.765625 -27.886719 C 6.832031 -27.949219 6.996094 -28.378906 7.0625 -28.84375 Z M 6.699219 -31.25 C 6.699219 -31.382812 6.535156 -31.25 6.367188 -30.953125 C 6.136719 -30.691406 6.039062 -30.394531 6.039062 -30.261719 C 6.039062 -30.160156 6.171875 -30.328125 6.402344 -30.589844 C 6.566406 -30.855469 6.730469 -31.152344 6.699219 -31.25 Z M 6.566406 -34.089844 C 6.535156 -34.1875 6.5 -34.054688 6.5 -33.859375 C 6.535156 -33.628906 6.566406 -33.628906 6.601562 -33.792969 C 6.699219 -33.925781 6.632812 -34.054688 6.566406 -34.089844 Z M 9.207031 -36.199219 C 9.371094 -36.628906 9.140625 -36.695312 8.941406 -36.265625 C 8.8125 -35.96875 8.84375 -35.839844 8.976562 -35.839844 C 9.074219 -35.839844 9.175781 -36.003906 9.207031 -36.199219 Z M 9.207031 -36.199219 "/></g></g></g><g fill="#b1163d" fill-opacity="1"><g transform="translate(268.525244, 213.356984)"><g><path d="M 3.332031 -7.855469 C 3.367188 -7.855469 3.597656 -7.855469 3.894531 -7.855469 C 4.191406 -7.855469 4.421875 -7.921875 4.519531 -8.019531 C 4.554688 -8.117188 4.753906 -8.21875 4.917969 -8.28125 C 5.113281 -8.347656 5.3125 -8.515625 5.410156 -8.613281 C 5.511719 -8.746094 6.007812 -9.140625 6.46875 -9.535156 C 7.292969 -10.164062 7.558594 -10.492188 7.324219 -10.492188 C 7.195312 -10.492188 7.226562 -10.824219 7.390625 -10.988281 C 7.492188 -11.054688 7.523438 -11.152344 7.523438 -11.21875 C 7.523438 -11.253906 7.753906 -11.582031 8.019531 -11.914062 C 8.546875 -12.574219 8.679688 -12.769531 8.613281 -12.769531 C 8.578125 -12.769531 8.382812 -12.640625 8.183594 -12.441406 C 7.921875 -12.144531 7.820312 -12.078125 7.6875 -12.175781 C 7.558594 -12.277344 7.457031 -12.242188 7.09375 -11.914062 C 6.699219 -11.449219 6.367188 -11.320312 6.535156 -11.648438 C 6.601562 -11.746094 6.699219 -11.914062 6.796875 -11.980469 C 6.996094 -12.144531 7.953125 -13.332031 8.578125 -14.191406 C 8.84375 -14.585938 9.207031 -15.046875 9.40625 -15.277344 C 9.601562 -15.511719 9.800781 -15.808594 9.898438 -15.972656 C 9.964844 -16.136719 10.097656 -16.234375 10.132812 -16.203125 C 10.195312 -16.136719 10.363281 -16.234375 10.527344 -16.402344 C 10.691406 -16.53125 10.824219 -16.632812 10.824219 -16.632812 C 10.824219 -16.53125 9.867188 -14.980469 9.703125 -14.816406 C 9.601562 -14.71875 9.503906 -14.617188 9.503906 -14.554688 C 9.503906 -14.320312 9.703125 -14.488281 10.097656 -15.015625 C 10.296875 -15.3125 10.625 -15.742188 10.789062 -15.972656 C 11.1875 -16.53125 11.449219 -17.09375 11.648438 -17.722656 C 11.746094 -18.050781 11.914062 -18.480469 12.011719 -18.742188 C 12.144531 -18.976562 12.242188 -19.273438 12.242188 -19.371094 C 12.242188 -19.46875 12.308594 -19.535156 12.40625 -19.535156 C 12.441406 -19.535156 12.507812 -19.570312 12.507812 -19.636719 C 12.472656 -19.867188 12.507812 -20.03125 12.605469 -19.964844 C 12.605469 -19.933594 12.703125 -20.128906 12.769531 -20.328125 C 12.902344 -20.855469 12.703125 -20.824219 12.40625 -20.296875 C 12.175781 -19.898438 11.21875 -18.414062 10.824219 -17.785156 C 10.726562 -17.621094 10.527344 -17.324219 10.394531 -17.128906 C 10.261719 -16.929688 9.964844 -16.53125 9.703125 -16.171875 C 8.449219 -14.355469 7.457031 -13.035156 7.128906 -12.804688 C 6.964844 -12.671875 6.832031 -12.507812 6.832031 -12.441406 C 6.832031 -12.308594 6.433594 -11.878906 6.304688 -11.878906 C 6.269531 -11.878906 6.007812 -11.683594 5.710938 -11.417969 C 5.148438 -10.921875 4.917969 -10.824219 5.3125 -11.320312 C 5.476562 -11.515625 5.941406 -12.046875 6.367188 -12.539062 C 7.292969 -13.628906 7.820312 -14.320312 7.984375 -14.617188 C 8.019531 -14.785156 8.21875 -15.015625 8.347656 -15.148438 C 8.515625 -15.246094 8.613281 -15.445312 8.613281 -15.511719 C 8.613281 -15.542969 8.710938 -15.742188 8.8125 -15.839844 C 8.941406 -15.972656 9.007812 -16.136719 8.976562 -16.136719 C 8.910156 -16.269531 9.109375 -16.664062 9.238281 -16.597656 C 9.304688 -16.566406 9.304688 -16.632812 9.304688 -16.796875 C 9.304688 -17.027344 9.339844 -17.027344 9.503906 -16.929688 C 9.636719 -16.828125 9.667969 -16.828125 9.601562 -16.960938 C 9.535156 -17.128906 9.769531 -17.523438 10.492188 -18.578125 C 10.957031 -19.238281 11.121094 -19.535156 11.023438 -19.535156 C 10.957031 -19.535156 10.527344 -18.976562 10.527344 -18.875 C 10.527344 -18.84375 10.492188 -18.742188 10.429688 -18.710938 C 10.261719 -18.511719 9.800781 -17.886719 9.371094 -17.292969 C 7.855469 -15.113281 7.160156 -14.257812 6.898438 -14.191406 C 6.632812 -14.125 6.5 -13.925781 6.601562 -13.726562 C 6.632812 -13.628906 6.601562 -13.5625 6.566406 -13.5625 C 6.5 -13.5625 6.433594 -13.628906 6.433594 -13.660156 C 6.402344 -13.726562 6.203125 -13.53125 5.941406 -13.199219 C 5.710938 -12.902344 5.476562 -12.605469 5.410156 -12.539062 C 5.3125 -12.507812 5.246094 -12.40625 5.246094 -12.34375 C 5.246094 -12.242188 5.179688 -12.144531 5.050781 -12.144531 C 4.917969 -12.078125 4.882812 -12.011719 4.917969 -11.914062 C 4.917969 -11.8125 4.882812 -11.746094 4.785156 -11.714844 C 4.6875 -11.683594 4.390625 -11.484375 4.191406 -11.253906 C 3.925781 -11.054688 3.597656 -10.855469 3.496094 -10.824219 C 3.332031 -10.789062 3.199219 -10.726562 3.167969 -10.691406 C 3.070312 -10.59375 2.375 -10.296875 2.210938 -10.296875 C 1.847656 -10.296875 1.816406 -11.054688 2.046875 -12.144531 C 2.210938 -12.9375 2.277344 -13.132812 2.375 -13.925781 C 2.507812 -15.015625 3.796875 -19.140625 4.324219 -20.261719 C 4.519531 -20.691406 4.652344 -21.054688 4.652344 -21.152344 C 4.652344 -21.253906 4.851562 -21.878906 4.949219 -22.109375 C 5.113281 -22.441406 4.984375 -23.230469 4.6875 -23.628906 C 4.519531 -23.890625 4.324219 -24.089844 4.222656 -24.089844 C 4.15625 -24.089844 3.859375 -24.1875 3.597656 -24.355469 C 2.96875 -24.652344 2.671875 -24.652344 2.671875 -24.421875 C 2.671875 -24.320312 2.574219 -24.121094 2.410156 -23.992188 C 2.308594 -23.859375 2.179688 -23.726562 2.179688 -23.660156 C 2.179688 -23.628906 2.078125 -23.332031 1.945312 -23.035156 C 1.714844 -22.539062 1.222656 -21.351562 0.691406 -19.933594 C 0.363281 -19.039062 0.0976562 -18.25 -0.296875 -16.929688 C -0.429688 -16.53125 -0.59375 -15.9375 -0.691406 -15.609375 C -0.890625 -14.980469 -1.121094 -13.695312 -1.253906 -12.804688 C -1.351562 -11.945312 -0.925781 -10.726562 -0.363281 -10.195312 C -0.265625 -10.132812 0.0664062 -9.800781 0.394531 -9.472656 C 0.691406 -9.140625 0.988281 -8.910156 1.023438 -8.910156 C 1.054688 -8.910156 1.253906 -8.777344 1.417969 -8.644531 C 1.617188 -8.515625 1.816406 -8.414062 1.847656 -8.414062 C 1.914062 -8.414062 2.011719 -8.316406 2.078125 -8.25 C 2.179688 -8.117188 2.476562 -8.019531 3.070312 -7.921875 C 3.199219 -7.921875 3.332031 -7.886719 3.332031 -7.855469 Z M 0.0976562 -14.355469 C 0.0976562 -14.222656 0 -13.792969 -0.0976562 -13.429688 C -0.265625 -12.835938 -0.296875 -12.804688 -0.296875 -13.066406 C -0.296875 -13.234375 -0.230469 -13.628906 -0.164062 -13.960938 C -0.0976562 -14.257812 0.03125 -14.75 0.0976562 -15.046875 C 0.296875 -16.039062 1.1875 -18.578125 1.1875 -18.214844 C 1.1875 -18.148438 0.726562 -16.632812 0.59375 -16.300781 C 0.496094 -16.039062 0.296875 -15.148438 0.265625 -14.914062 C 0.230469 -14.816406 0.199219 -14.71875 0.164062 -14.683594 C 0.132812 -14.652344 0.0976562 -14.519531 0.0976562 -14.355469 Z M 6.929688 -13.925781 C 6.929688 -13.894531 6.898438 -13.828125 6.832031 -13.828125 C 6.796875 -13.792969 6.730469 -13.792969 6.730469 -13.859375 C 6.730469 -13.925781 6.796875 -13.960938 6.832031 -13.960938 C 6.898438 -13.960938 6.929688 -13.925781 6.929688 -13.925781 Z M 0.5625 -14.785156 C 0.59375 -14.71875 0.59375 -14.617188 0.5625 -14.519531 C 0.527344 -14.453125 0.496094 -14.519531 0.496094 -14.652344 C 0.496094 -14.785156 0.527344 -14.851562 0.5625 -14.785156 Z M 8.613281 -13.429688 C 8.613281 -13.398438 8.679688 -13.363281 8.710938 -13.363281 C 8.8125 -13.363281 8.8125 -13.429688 8.8125 -13.464844 C 8.8125 -13.53125 8.8125 -13.53125 8.710938 -13.53125 C 8.679688 -13.496094 8.613281 -13.429688 8.613281 -13.429688 Z M 5.90625 -28.148438 C 6.007812 -28.050781 6.105469 -27.949219 6.136719 -27.949219 C 6.269531 -27.949219 6.632812 -28.347656 6.664062 -28.480469 C 6.699219 -28.675781 6.699219 -28.808594 6.765625 -28.941406 C 6.796875 -29.039062 6.863281 -29.203125 6.898438 -29.304688 C 6.996094 -29.734375 7.324219 -30.589844 7.425781 -30.65625 C 7.558594 -30.722656 7.621094 -31.25 7.492188 -31.414062 C 7.457031 -31.480469 7.324219 -31.546875 7.226562 -31.546875 C 7.128906 -31.546875 7.027344 -31.582031 7.027344 -31.648438 C 7.027344 -31.746094 6.832031 -31.84375 6.601562 -31.910156 C 6.304688 -31.976562 6.136719 -32.074219 6.136719 -32.175781 C 6.136719 -32.242188 6.070312 -32.339844 5.972656 -32.339844 C 5.875 -32.339844 5.742188 -32.371094 5.710938 -32.4375 C 5.511719 -32.605469 5.246094 -32.4375 5.113281 -32.074219 L 4.984375 -31.777344 L 4.984375 -32.042969 C 4.949219 -32.339844 4.753906 -32.4375 4.753906 -32.207031 C 4.753906 -32.140625 4.519531 -31.648438 4.222656 -31.117188 L 3.695312 -30.160156 L 3.828125 -29.699219 C 3.925781 -29.4375 4.09375 -29.203125 4.191406 -29.140625 C 4.453125 -29.007812 4.949219 -28.480469 4.949219 -28.347656 C 4.949219 -28.183594 5.113281 -28.148438 5.445312 -28.246094 C 5.742188 -28.347656 5.808594 -28.347656 5.90625 -28.148438 Z M 4.453125 -30.820312 C 4.453125 -30.722656 4.421875 -30.625 4.355469 -30.589844 C 4.222656 -30.523438 4.222656 -30.65625 4.355469 -30.855469 C 4.453125 -30.953125 4.453125 -30.953125 4.453125 -30.820312 Z M 4.453125 -30.820312 "/></g></g></g><g fill="#407aa8" fill-opacity="1"><g transform="translate(281.755708, 213.356984)"><g><path d="M 0.460938 -7.589844 C 1.550781 -7.261719 1.914062 -7.425781 1.945312 -8.117188 C 1.945312 -8.382812 2.078125 -8.84375 2.277344 -9.175781 C 2.441406 -9.4375 2.605469 -9.769531 2.605469 -9.898438 C 2.605469 -10.132812 3.101562 -11.351562 3.433594 -11.914062 C 3.496094 -12.078125 3.796875 -12.640625 4.09375 -13.199219 C 4.355469 -13.792969 4.71875 -14.386719 4.917969 -14.585938 C 5.082031 -14.785156 5.148438 -15.046875 5.113281 -15.113281 C 5.082031 -15.214844 5.179688 -15.410156 5.347656 -15.476562 C 5.511719 -15.609375 5.675781 -15.742188 5.675781 -15.871094 C 5.675781 -15.972656 5.742188 -16.171875 5.90625 -16.269531 C 6.039062 -16.367188 6.105469 -16.46875 6.070312 -16.566406 C 6.039062 -16.597656 6.171875 -16.828125 6.402344 -17.128906 C 6.601562 -17.390625 6.796875 -17.722656 6.796875 -17.753906 C 6.796875 -17.851562 6.996094 -18.117188 7.261719 -18.347656 C 7.492188 -18.578125 7.722656 -18.875 7.722656 -18.910156 C 7.722656 -19.007812 9.273438 -21.1875 9.472656 -21.351562 C 9.503906 -21.417969 9.800781 -21.78125 10.164062 -22.242188 C 10.527344 -22.671875 10.824219 -23.066406 10.921875 -23.101562 C 10.957031 -23.132812 11.21875 -23.363281 11.484375 -23.628906 C 11.746094 -23.890625 11.980469 -24.089844 12.046875 -24.058594 C 12.078125 -23.992188 12.175781 -23.332031 12.277344 -22.570312 C 12.441406 -21.449219 12.441406 -20.757812 12.277344 -18.976562 C 12.011719 -16.203125 12.011719 -13.660156 12.210938 -13.035156 C 12.308594 -12.769531 12.441406 -12.34375 12.507812 -12.175781 C 12.671875 -11.714844 14.421875 -9.933594 14.75 -9.933594 C 14.851562 -9.898438 15.113281 -9.800781 15.3125 -9.636719 C 15.609375 -9.40625 15.640625 -9.40625 15.871094 -9.601562 C 15.972656 -9.769531 16.234375 -9.835938 16.402344 -9.835938 C 16.53125 -9.835938 16.699219 -9.898438 16.699219 -9.964844 C 16.699219 -10.03125 16.960938 -10.261719 17.292969 -10.460938 C 18.445312 -11.253906 20.558594 -13.925781 20.691406 -14.816406 C 20.722656 -15.113281 20.953125 -15.574219 21.1875 -15.9375 C 21.382812 -16.300781 21.582031 -16.699219 21.550781 -16.863281 C 21.484375 -17.160156 21.019531 -17.324219 20.855469 -17.09375 C 20.261719 -16.136719 18.050781 -13.894531 17.851562 -13.992188 C 17.785156 -14.058594 17.785156 -13.960938 17.820312 -13.859375 C 17.851562 -13.761719 17.6875 -13.464844 17.488281 -13.265625 C 17.257812 -13.035156 17.09375 -12.96875 17.09375 -13.101562 C 17.128906 -13.167969 17.027344 -13.265625 16.929688 -13.265625 C 16.863281 -13.265625 16.796875 -13.132812 16.894531 -12.9375 C 16.894531 -12.738281 16.863281 -12.605469 16.765625 -12.574219 C 16.632812 -12.539062 16.402344 -12.472656 16.269531 -12.375 C 16.070312 -12.34375 15.839844 -12.308594 15.773438 -12.308594 C 15.675781 -12.308594 15.476562 -12.242188 15.3125 -12.109375 C 15.214844 -11.980469 15.046875 -11.847656 14.980469 -11.847656 C 14.617188 -11.847656 14.585938 -13.695312 14.882812 -16.433594 C 15.148438 -19.171875 15.246094 -20.824219 15.113281 -20.824219 C 15.046875 -20.855469 14.980469 -21.019531 15.046875 -21.121094 C 15.046875 -21.78125 14.617188 -23.398438 14.15625 -24.222656 C 13.695312 -24.980469 13.53125 -25.144531 12.835938 -25.410156 C 12.046875 -25.707031 11.582031 -25.773438 10.824219 -25.675781 C 10.429688 -25.609375 9.667969 -25.144531 9.40625 -24.882812 C 9.207031 -24.617188 9.207031 -24.585938 9.4375 -24.71875 C 9.535156 -24.78125 9.800781 -24.980469 10.03125 -25.144531 C 10.59375 -25.507812 10.660156 -25.476562 10.429688 -25.015625 C 10.328125 -24.78125 10.132812 -24.652344 10.066406 -24.683594 C 9.964844 -24.78125 9.867188 -24.71875 9.964844 -24.652344 C 10 -24.550781 9.667969 -24.089844 9.238281 -23.660156 C 8.8125 -23.164062 8.21875 -22.441406 7.921875 -22.011719 C 7.558594 -21.582031 7.128906 -21.019531 6.929688 -20.824219 C 6.730469 -20.59375 6.566406 -20.328125 6.566406 -20.296875 C 6.566406 -20.261719 6.304688 -19.898438 6.039062 -19.503906 C 5.710938 -19.105469 5.476562 -18.742188 5.476562 -18.710938 C 5.476562 -18.613281 5.148438 -18.085938 4.785156 -17.523438 C 4.390625 -16.996094 4.027344 -16.367188 3.925781 -16.203125 C 3.761719 -15.972656 3.761719 -15.972656 3.859375 -16.433594 C 3.925781 -16.664062 4.09375 -17.027344 4.191406 -17.226562 C 4.554688 -17.984375 4.882812 -18.777344 4.882812 -19.140625 C 4.882812 -19.46875 4.882812 -19.46875 5.113281 -19.171875 C 5.3125 -18.84375 5.3125 -18.84375 5.347656 -19.140625 C 5.347656 -19.371094 5.378906 -19.636719 5.445312 -19.800781 C 5.542969 -20.097656 5.542969 -20.097656 5.28125 -19.867188 C 5.015625 -19.667969 4.984375 -19.667969 5.148438 -19.933594 C 5.179688 -20.128906 5.609375 -21.1875 5.972656 -22.273438 C 6.402344 -23.398438 6.765625 -24.453125 6.863281 -24.585938 C 6.964844 -24.75 7.027344 -24.980469 7.0625 -25.113281 C 7.0625 -25.246094 7.128906 -25.378906 7.226562 -25.507812 C 7.457031 -25.707031 7.492188 -26.003906 7.589844 -26.894531 C 7.621094 -27.421875 7.558594 -27.589844 7.226562 -27.917969 C 6.730469 -28.378906 5.476562 -28.742188 5.113281 -28.578125 C 4.851562 -28.414062 4.585938 -28.347656 4.222656 -28.28125 C 4.058594 -28.214844 3.859375 -27.917969 3.859375 -27.753906 C 3.828125 -27.652344 3.925781 -27.652344 4.058594 -27.6875 C 4.222656 -27.785156 4.191406 -27.621094 3.925781 -27.09375 C 3.730469 -26.695312 3.5625 -26.167969 3.53125 -25.871094 C 3.496094 -25.574219 3.332031 -25.078125 3.199219 -24.75 C 3.035156 -24.386719 2.839844 -23.726562 2.707031 -23.296875 C 2.574219 -22.835938 2.375 -22.242188 2.277344 -21.910156 C 1.75 -20.527344 1.550781 -20.0625 1.351562 -19.667969 C 1.222656 -19.402344 1.1875 -19.207031 1.222656 -19.171875 C 1.253906 -19.140625 1.15625 -18.84375 1.054688 -18.613281 C 0.890625 -18.347656 0.792969 -17.953125 0.792969 -17.753906 C 0.792969 -17.589844 0.691406 -17.390625 0.628906 -17.390625 C 0.5625 -17.390625 0.496094 -17.359375 0.527344 -17.257812 C 0.527344 -17.226562 0.460938 -17.027344 0.429688 -16.828125 C 0.328125 -16.664062 0.132812 -15.972656 -0.03125 -15.277344 C -0.265625 -14.652344 -0.5625 -13.792969 -0.660156 -13.429688 C -0.792969 -13.101562 -0.925781 -12.769531 -0.890625 -12.769531 C -0.890625 -12.769531 -0.925781 -12.703125 -0.957031 -12.539062 C -0.988281 -12.40625 -1.121094 -11.980469 -1.222656 -11.550781 C -1.351562 -11.1875 -1.519531 -10.726562 -1.585938 -10.59375 C -1.75 -10.261719 -1.648438 -9.339844 -1.417969 -9.007812 C -1.351562 -8.910156 -1.1875 -8.777344 -1.023438 -8.777344 C -0.859375 -8.777344 -0.726562 -8.679688 -0.726562 -8.578125 C -0.726562 -8.25 -0.164062 -7.753906 0.460938 -7.589844 Z M -0.230469 -10.296875 C -0.230469 -10.261719 -0.328125 -10.230469 -0.460938 -10.230469 C -0.59375 -10.230469 -0.660156 -10.328125 -0.660156 -10.394531 C -0.660156 -10.492188 -0.59375 -10.527344 -0.429688 -10.460938 C -0.328125 -10.429688 -0.230469 -10.363281 -0.230469 -10.296875 Z M 0.230469 -12.011719 C 0.0664062 -11.386719 -0.394531 -10.691406 -0.527344 -10.855469 C -0.59375 -10.890625 -0.5625 -11.054688 -0.496094 -11.21875 C -0.394531 -11.386719 -0.265625 -11.78125 -0.199219 -12.109375 C -0.0976562 -12.472656 0.0976562 -13.199219 0.230469 -13.726562 C 0.394531 -14.222656 0.527344 -14.785156 0.5625 -14.980469 C 0.5625 -15.148438 0.628906 -15.277344 0.757812 -15.246094 C 0.824219 -15.246094 0.925781 -15.445312 0.957031 -15.707031 C 1.023438 -16.53125 1.089844 -16.894531 1.253906 -16.863281 C 1.285156 -16.863281 1.386719 -17.09375 1.386719 -17.292969 C 1.386719 -17.523438 1.519531 -17.820312 1.617188 -17.917969 C 1.75 -18.085938 1.816406 -18.183594 1.78125 -18.183594 C 1.714844 -18.183594 1.75 -18.28125 1.816406 -18.414062 C 1.945312 -18.546875 1.980469 -18.644531 1.914062 -18.710938 C 1.882812 -18.777344 2.046875 -19.207031 2.277344 -19.734375 C 2.539062 -20.261719 2.871094 -21.085938 3.070312 -21.550781 C 3.234375 -22.078125 3.464844 -22.738281 3.597656 -23 L 3.859375 -23.5625 L 3.695312 -22.902344 C 3.664062 -22.472656 3.53125 -22.042969 3.496094 -21.910156 C 3.300781 -21.515625 1.320312 -15.542969 1.320312 -15.277344 C 1.285156 -15.214844 1.222656 -14.949219 1.15625 -14.785156 C 0.890625 -14.421875 0.363281 -12.738281 0.230469 -12.011719 Z M 3.992188 -14.617188 C 3.433594 -13.660156 3.136719 -13.398438 3.597656 -14.222656 C 4.257812 -15.511719 6.566406 -19.238281 7.324219 -20.230469 C 9.109375 -22.605469 11.089844 -24.71875 11.484375 -24.71875 C 11.617188 -24.71875 11.285156 -24.386719 10.824219 -23.957031 C 10.394531 -23.5625 9.769531 -22.902344 9.503906 -22.507812 C 9.238281 -22.042969 8.8125 -21.613281 8.613281 -21.449219 C 8.414062 -21.351562 8.25 -21.152344 8.25 -21.019531 C 8.25 -20.890625 8.117188 -20.65625 7.984375 -20.492188 C 7.558594 -20.0625 5.246094 -16.796875 5.246094 -16.664062 C 5.246094 -16.597656 5.082031 -16.335938 4.851562 -16.070312 C 4.652344 -15.773438 4.257812 -15.148438 3.992188 -14.617188 Z M 12.96875 -17.324219 C 12.9375 -17.257812 12.9375 -16.664062 12.835938 -15.9375 C 12.703125 -14.554688 12.605469 -14.882812 12.738281 -16.335938 C 12.769531 -17.191406 12.835938 -17.488281 12.96875 -17.324219 Z M 12.96875 -17.785156 C 12.835938 -17.425781 12.769531 -17.390625 12.769531 -17.722656 C 12.769531 -17.851562 12.835938 -18.019531 12.902344 -18.050781 C 12.96875 -18.085938 13.003906 -18.019531 12.96875 -17.785156 Z M 4.324219 -19.964844 C 4.324219 -19.898438 4.191406 -19.667969 4.09375 -19.46875 C 3.960938 -19.339844 3.828125 -19.238281 3.859375 -19.371094 C 3.859375 -19.4375 3.925781 -19.636719 4.09375 -19.867188 C 4.222656 -19.996094 4.324219 -20.097656 4.324219 -19.964844 Z M 13.265625 -20.65625 C 13.300781 -20.527344 13.332031 -20.296875 13.234375 -20.164062 C 13.199219 -19.996094 13.199219 -20.097656 13.167969 -20.328125 C 13.167969 -20.625 13.234375 -20.722656 13.265625 -20.65625 Z M 5.839844 -20.789062 C 5.839844 -20.625 5.90625 -20.492188 5.972656 -20.492188 C 6.171875 -20.492188 6.171875 -20.757812 6.007812 -20.890625 C 5.941406 -20.988281 5.839844 -20.890625 5.839844 -20.789062 Z M 6.304688 -21.152344 C 6.304688 -20.855469 6.535156 -20.953125 6.730469 -21.382812 C 6.996094 -21.976562 6.964844 -22.042969 6.632812 -21.648438 C 6.433594 -21.484375 6.304688 -21.253906 6.304688 -21.152344 Z M 7.226562 -22.078125 C 7.359375 -21.976562 7.457031 -21.945312 7.457031 -21.945312 C 7.457031 -21.945312 7.457031 -22.109375 7.492188 -22.339844 C 7.523438 -22.769531 7.492188 -22.769531 7.261719 -22.539062 C 7.0625 -22.273438 7.027344 -22.242188 7.226562 -22.078125 Z M 7.722656 -23 C 7.722656 -22.933594 7.820312 -22.867188 8.019531 -22.867188 C 8.183594 -22.867188 8.28125 -22.933594 8.25 -23.035156 C 8.21875 -23.101562 8.21875 -23.230469 8.316406 -23.265625 C 8.414062 -23.332031 8.480469 -23.496094 8.480469 -23.660156 C 8.515625 -23.859375 8.382812 -23.824219 8.117188 -23.527344 C 7.886719 -23.296875 7.722656 -23.035156 7.722656 -23 Z M 3.367188 -26.796875 C 3.367188 -26.53125 3.464844 -26.597656 3.5625 -26.894531 C 3.628906 -27.027344 3.597656 -27.09375 3.53125 -27.027344 C 3.398438 -26.992188 3.367188 -26.863281 3.367188 -26.796875 Z M 3.367188 -26.796875 "/></g></g></g></svg>